<svg xmlns="http://www.w3.org/2000/svg" viewBox="0 0 528.95 513.87"><defs><style>.cls-1{fill:#232123;}.cls-2{fill:#1d1d1b;opacity:0.15;}.cls-3{fill:none;}.cls-4{fill:#c9c9c9;}.cls-10,.cls-11,.cls-5,.cls-8,.cls-9{fill:#f43d25;}.cls-6{fill:#ffb510;}.cls-7{fill:#fff;}.cls-10,.cls-11,.cls-8,.cls-9{stroke:#f43d25;stroke-miterlimit:10;}.cls-8{stroke-width:1.1px;}.cls-9{stroke-width:0.88px;}.cls-10{stroke-width:0.78px;}.cls-11{stroke-width:0.34px;}.cls-12{fill:#f7f7f7;}</style></defs><title>Pass The Bomb Assets</title><g id="Layer_1" data-name="Layer 1"><circle class="cls-1" cx="312.44" cy="14.36" r="14.36"/><ellipse class="cls-2" cx="267.2" cy="451.42" rx="255.82" ry="62.45"/><circle class="cls-1" cx="264.05" cy="255.53" r="193.51"/><rect class="cls-3" x="386.33" y="178.82" width="115.3" height="115.3"/><circle class="cls-1" cx="443.98" cy="236.47" r="57.65"/><rect class="cls-3" x="414.99" y="164.05" width="53.58" height="53.58"/><circle class="cls-1" cx="441.78" cy="190.84" r="26.79"/><rect class="cls-3" x="350.8" y="86.25" width="120.73" height="120.73"/><circle class="cls-1" cx="411.16" cy="146.61" r="60.36"/><rect class="cls-3" x="325.62" y="49.84" width="118.41" height="118.41"/><circle class="cls-1" cx="384.82" cy="109.04" r="59.2"/><rect class="cls-3" x="311.76" y="56.97" width="52.74" height="52.74"/><circle class="cls-1" cx="338.13" cy="83.34" r="26.37"/><rect class="cls-3" x="267.44" y="48.32" width="39" height="39"/><circle class="cls-1" cx="286.94" cy="67.83" r="19.5"/><rect class="cls-3" x="174.77" y="8.76" width="126.24" height="126.24"/><circle class="cls-1" cx="237.89" cy="71.88" r="63.12"/><rect class="cls-3" x="163.18" y="26.71" width="111.29" height="111.29"/><circle class="cls-1" cx="218.83" cy="82.36" r="55.64"/><rect class="cls-3" x="166.94" y="80.69" width="25.46" height="25.46"/><circle class="cls-1" cx="179.67" cy="93.41" r="12.73"/><rect class="cls-3" x="93.05" y="39.49" width="128.34" height="128.34"/><circle class="cls-1" cx="157.22" cy="103.66" r="64.17"/><rect class="cls-3" x="102.79" y="102.78" width="54.25" height="54.25"/><circle class="cls-1" cx="129.92" cy="129.9" r="27.13"/><rect class="cls-3" x="78.47" y="148.69" width="49.69" height="49.69"/><circle class="cls-1" cx="103.31" cy="173.53" r="24.84"/><rect class="cls-3" x="49.89" y="143.64" width="103.87" height="103.87"/><circle class="cls-1" cx="101.82" cy="195.58" r="51.93"/><rect class="cls-3" x="30.61" y="183.95" width="105.24" height="105.24"/><circle class="cls-1" cx="83.24" cy="236.57" r="52.62"/><rect class="cls-3" x="27.61" y="211.42" width="101.15" height="101.15"/><circle class="cls-1" cx="78.19" cy="261.99" r="50.57"/><rect class="cls-3" x="46.17" y="248.01" width="80.98" height="80.98"/><circle class="cls-1" cx="86.66" cy="288.5" r="40.49"/><rect class="cls-3" x="37.63" y="249.99" width="114.42" height="114.42"/><circle class="cls-1" cx="94.84" cy="307.2" r="57.21"/><rect class="cls-3" x="78.35" y="306.53" width="68.81" height="68.81"/><circle class="cls-1" cx="112.76" cy="340.94" r="34.41"/><rect class="cls-3" x="74.73" y="308.25" width="112.09" height="112.09"/><circle class="cls-1" cx="130.77" cy="364.3" r="56.04"/><rect class="cls-3" x="84.69" y="331.08" width="119.31" height="119.31"/><circle class="cls-1" cx="144.35" cy="390.73" r="59.65"/><rect class="cls-3" x="126.61" y="371.33" width="104.08" height="104.08"/><circle class="cls-1" cx="178.65" cy="423.37" r="52.04"/><rect class="cls-3" x="173.97" y="383.85" width="105.73" height="105.73"/><circle class="cls-1" cx="226.83" cy="436.71" r="52.87"/><rect class="cls-3" x="227.91" y="400.32" width="55.01" height="55.01"/><circle class="cls-1" cx="255.41" cy="427.82" r="27.5"/><rect class="cls-3" x="236.05" y="404.02" width="83.66" height="83.66"/><circle class="cls-1" cx="277.88" cy="445.85" r="41.83"/><rect class="cls-3" x="291.31" y="389.82" width="65.88" height="65.88"/><circle class="cls-1" cx="324.25" cy="422.76" r="32.94"/><rect class="cls-3" x="323.86" y="374.19" width="68.33" height="68.33"/><circle class="cls-1" cx="358.03" cy="408.35" r="34.17"/><rect class="cls-3" x="312.23" y="330.51" width="130.88" height="130.88"/><circle class="cls-1" cx="377.67" cy="395.95" r="65.44"/><rect class="cls-3" x="358.22" y="301.32" width="123.66" height="123.66"/><circle class="cls-1" cx="420.06" cy="363.15" r="61.83"/><rect class="cls-3" x="418.43" y="314.79" width="25.1" height="25.1"/><circle class="cls-1" cx="430.98" cy="327.34" r="12.55"/><rect class="cls-3" x="417.59" y="283.58" width="48.9" height="48.9"/><circle class="cls-1" cx="442.03" cy="308.03" r="24.45"/><rect class="cls-3" x="403.15" y="232.02" width="90.49" height="90.49"/><circle class="cls-1" cx="448.39" cy="277.26" r="45.24"/><rect class="cls-3" x="421.46" y="231.78" width="44.29" height="44.29"/><circle class="cls-1" cx="443.6" cy="253.92" r="22.14"/><circle class="cls-4" cx="264.05" cy="255.53" r="153.43" transform="translate(-71.96 404.25) rotate(-67.93)"/><rect class="cls-3" x="210.9" y="355.84" width="90.41" height="90.41"/><circle class="cls-4" cx="256.11" cy="401.04" r="45.21"/><rect class="cls-3" x="242.16" y="307.37" width="153.48" height="153.48"/><circle class="cls-4" cx="318.9" cy="384.11" r="76.74"/><rect class="cls-3" x="316.77" y="323.39" width="71.14" height="71.14"/><circle class="cls-4" cx="352.34" cy="358.96" r="35.57"/><rect class="cls-3" x="343.3" y="272.22" width="83.97" height="83.97"/><circle class="cls-4" cx="385.28" cy="314.21" r="41.98"/><rect class="cls-3" x="356.65" y="211.02" width="94.79" height="94.79"/><circle class="cls-4" cx="404.04" cy="258.41" r="47.39"/><rect class="cls-3" x="354.29" y="190.2" width="68.01" height="68.01"/><circle class="cls-4" cx="388.3" cy="224.2" r="34"/><rect class="cls-3" x="318.91" y="109.11" width="156.39" height="156.39"/><circle class="cls-4" cx="397.1" cy="187.31" r="78.19"/><rect class="cls-3" x="345.52" y="128.01" width="39.4" height="39.4"/><circle class="cls-4" cx="365.22" cy="147.7" r="19.7"/><rect class="cls-3" x="252.91" y="61.89" width="120.99" height="120.99"/><circle class="cls-4" cx="313.4" cy="122.38" r="60.49"/><rect class="cls-3" x="207.31" y="76.34" width="86.76" height="86.76"/><circle class="cls-4" cx="250.69" cy="119.72" r="43.38"/><rect class="cls-3" x="164.21" y="90.36" width="93.33" height="93.33"/><circle class="cls-4" cx="210.87" cy="137.03" r="46.67"/><rect class="cls-3" x="150.91" y="125.96" width="62.38" height="62.38"/><circle class="cls-4" cx="182.1" cy="157.15" r="31.19"/><rect class="cls-3" x="102.06" y="152.57" width="67.82" height="67.82"/><circle class="cls-4" cx="135.96" cy="186.48" r="33.91"/><rect class="cls-3" x="55.5" y="164.34" width="160.68" height="160.68"/><circle class="cls-4" cx="135.84" cy="244.68" r="80.34"/><rect class="cls-3" x="90.22" y="249.68" width="89.85" height="89.85"/><circle class="cls-4" cx="135.14" cy="294.6" r="44.92"/><rect class="cls-3" x="119.26" y="318.21" width="39.52" height="39.52"/><circle class="cls-4" cx="139.01" cy="337.97" r="19.76"/><rect class="cls-3" x="105.03" y="295.5" width="114.39" height="114.39"/><circle class="cls-4" cx="162.23" cy="352.69" r="57.2"/><rect class="cls-3" x="183.36" y="355.21" width="60.26" height="60.26"/><circle class="cls-4" cx="213.49" cy="385.34" r="30.13"/><circle class="cls-1" cx="27.24" cy="99.73" r="11.79"/><circle class="cls-4" cx="133.25" cy="86.82" r="18.16" transform="translate(-22.36 119.65) rotate(-45)"/><circle class="cls-1" cx="523.01" cy="338.32" r="5.94"/><circle class="cls-1" cx="91.77" cy="138.77" r="18.13"/><circle class="cls-1" cx="23.93" cy="412.64" r="8.48"/><circle class="cls-4" cx="108.23" cy="431.44" r="10.31"/><circle class="cls-4" cx="39.04" cy="353.67" r="14.62"/><circle class="cls-4" cx="471.91" cy="378.63" r="10.35"/><circle class="cls-4" cx="491.81" cy="274.05" r="5.72"/><circle class="cls-4" cx="426.69" cy="71.8" r="9.79"/><circle class="cls-5" cx="264.05" cy="255.53" r="104.92"/><rect class="cls-3" x="288.98" y="161.58" width="136.11" height="136.11"/><circle class="cls-5" cx="357.03" cy="229.64" r="68.06"/><rect class="cls-3" x="290.45" y="162.17" width="57.68" height="57.68"/><circle class="cls-5" cx="319.29" cy="191.01" r="28.84"/><rect class="cls-3" x="196.41" y="85.97" width="158.82" height="158.82"/><circle class="cls-5" cx="275.83" cy="165.38" r="79.41"/><rect class="cls-3" x="164.19" y="92.03" width="146.18" height="146.18"/><circle class="cls-5" cx="237.28" cy="165.12" r="73.09"/><rect class="cls-3" x="155.22" y="146.66" width="87.53" height="87.53"/><circle class="cls-5" cx="198.99" cy="190.43" r="43.77"/><rect class="cls-3" x="124.55" y="179.03" width="112.24" height="112.24"/><circle class="cls-5" cx="180.67" cy="235.15" r="56.12"/><rect class="cls-3" x="173.97" y="271.6" width="28.27" height="28.27"/><circle class="cls-5" cx="188.11" cy="285.74" r="14.14"/><rect class="cls-3" x="150.55" y="257.27" width="136.45" height="136.45"/><circle class="cls-5" cx="218.78" cy="325.5" r="68.23"/><rect class="cls-3" x="216.81" y="305.58" width="92.41" height="92.41"/><circle class="cls-5" cx="263.02" cy="351.79" r="46.2"/><rect class="cls-3" x="262.88" y="316.02" width="66.76" height="66.76"/><circle class="cls-5" cx="296.26" cy="349.41" r="33.38"/><rect class="cls-3" x="292.32" y="261.47" width="103.65" height="103.65"/><circle class="cls-5" cx="344.14" cy="313.3" r="51.82"/><rect class="cls-3" x="280.42" y="182" width="141.28" height="141.28"/><circle class="cls-5" cx="351.06" cy="252.64" r="70.64"/><circle class="cls-6" cx="264.05" cy="268.78" r="56.64"/><rect class="cls-3" x="273.51" y="228.79" width="64.72" height="64.72"/><circle class="cls-6" cx="305.87" cy="261.15" r="32.36"/><rect class="cls-3" x="276.26" y="219.21" width="46.91" height="46.91"/><circle class="cls-6" cx="299.72" cy="242.67" r="23.46"/><rect class="cls-3" x="218.9" y="160.1" width="126.67" height="126.67"/><circle class="cls-6" cx="282.23" cy="223.44" r="63.33"/><rect class="cls-3" x="222.31" y="197.73" width="58.95" height="58.95"/><circle class="cls-6" cx="251.79" cy="227.21" r="29.47"/><rect class="cls-3" x="167.54" y="204.8" width="101.36" height="101.36"/><circle class="cls-6" cx="218.22" cy="255.48" r="50.68"/><rect class="cls-3" x="190.15" y="255.6" width="63.07" height="63.07"/><circle class="cls-6" cx="221.68" cy="287.14" r="31.53"/><rect class="cls-3" x="241.09" y="305.6" width="23.32" height="23.32"/><circle class="cls-6" cx="252.75" cy="317.26" r="11.66"/><rect class="cls-3" x="258.16" y="266.01" width="63.47" height="63.47"/><circle class="cls-6" cx="289.89" cy="297.74" r="31.73"/><rect class="cls-3" x="256.82" y="235.41" width="96.41" height="96.41"/><circle class="cls-6" cx="305.02" cy="283.61" r="48.2"/><rect class="cls-3" x="264.8" y="221.87" width="89.29" height="89.29"/><circle class="cls-6" cx="309.45" cy="266.51" r="44.64"/><path class="cls-7" d="M312.44,266.79c0,19.54-33.13,18.08-52.68,18.08S222,273.54,222,254s45-43.38,64.56-43.38S312.44,247.24,312.44,266.79Z"/><circle class="cls-8" cx="91.77" cy="298.46" r="21.31"/><circle class="cls-9" cx="384.1" cy="395.2" r="16.96"/><circle class="cls-10" cx="395.64" cy="150.61" r="15.07"/><circle class="cls-11" cx="232.65" cy="62.02" r="6.49"/><path class="cls-12" d="M514.12,210c-12.69-3.19-25.58-6.23-38.32-9l-14.92-3.29-1.69,7.85a80.76,80.76,0,0,0-40.33-17.33,94.56,94.56,0,0,0-11.91-.77,78.25,78.25,0,0,0-43.8,13l-1.29.88,1.51-18L348.22,182c-11.88-1-24-1.79-35.89-2.36l-15.18-.73-1.26,26.43q-8.76-10.84-17.77-21.47l-4.57-5.39-7.07,0c-10.36,0-20.91.18-31.35.43l-15.28.36,1.4,47.88Q210.82,208,199.8,189.11L195,180.83l-9.56.81c-10.33.87-20.76,1.86-31,2.94l-9.54,1-3.2,9q-6.77,19.1-13,38.45a42.71,42.71,0,0,0-17.76-27.81c-6-4.28-13.65-6.93-22.85-7.88a68.94,68.94,0,0,0-7-.35,93.24,93.24,0,0,0-18.67,2c-15.84,3.34-31.83,7-47.54,11L0,213.76,33.95,346,48.6,342.3c15.18-3.8,30.65-7.33,46-10.48l.39-.08.39-.1c1.86-.49,3.79-1,5.76-1.55l0,.14,23.05-3.78c10.92-1.79,22-3.39,33-4.77l9.89-1.23,2.82-9.56c1.44-4.88,2.47-8.35,3.59-12q7.3-.75,14.62-1.38c1.78,3.38,3.45,6.59,5.77,11.1l4.53,8.81,9.88-.58c10.22-.6,20.59-1.09,30.81-1.45l2.48-.07c9.16-.19,18.43-.28,27.55-.28h16.2l.14-21q5.67,7.8,11.15,15.65l4.23,6.06,7.38.41c9.55.54,19.22,1.19,28.73,1.93L352,319.22l1.34-16a79.16,79.16,0,0,0,44.4,23.25,91.29,91.29,0,0,0,13.83,1.06A80.65,80.65,0,0,0,441.39,322a34,34,0,0,0,1.81,3.15,32.44,32.44,0,0,0,20.12,14.06,34.26,34.26,0,0,0,7.85.93,32.16,32.16,0,0,0,16.44-4.51,31.59,31.59,0,0,0,15-19.8,31.22,31.22,0,0,0-.19-16.74c5.51-15.83,11.14-31.8,16.76-47.53l.23-.65L529,213.77ZM405.63,267.27a8,8,0,0,1-5-3.28c-.69-.87-2.11-2.69-1.45-7.81.57-4.45,2.06-5.8,3.4-6.73a10.07,10.07,0,0,1,6-1.84H409Z"/><path class="cls-1" d="M121.2,300.79a30.54,30.54,0,0,0,5.05-22.1,26,26,0,0,0-9.66-17.15,28.87,28.87,0,0,0-8.34-4.53c4.95-5.52,6.84-12.55,5.5-21A27.58,27.58,0,0,0,102,217.6c-3.77-2.71-9.05-4.44-15.54-5.1a70.1,70.1,0,0,0-21,1.44q-23.61,5-47,10.85L44.91,327.55q23.2-5.81,46.59-10.63C102.78,314,114.39,310.93,121.2,300.79ZM78.94,249.45c-1.52,1-4.8,2.47-11.78,4l-5.63,1.21-2.34-10.71L65,242.65c7.81-1.66,11.16-1.33,12.45-1,1,.26,1.8,1.52,2.24,3.74C80.34,248.53,79.33,249.2,78.94,249.45ZM67.25,280.78c3.22-.7,4.83-1,8-1.72,8.34-1.74,12.51-1.58,14.53-1.17.76.16,2.18.45,2.83,3.85.68,3.56-.55,4.45-1.07,4.83-1.53,1.12-4.79,2.71-11.64,4.13-4,.83-6,1.26-10.06,2.14Z"/><path class="cls-1" d="M309.11,247.11q-20.5-27.38-42.59-53.4-15.53.05-31,.42,1.47,50,2.93,100-23.91-49.77-51.74-97.36-15.38,1.3-30.71,2.91-19.55,55.18-34.3,111.76,16.76-2.75,33.62-4.85c2.56-8.7,3.89-13.05,6.63-21.74q17.41-2,34.88-3.3c4.31,8,6.43,12,10.58,20.11,10.41-.61,20.8-1.1,31.22-1.47l2.64-.07c9.66-.2,19.3-.29,29-.29q.16-25.32.33-50.65,20.05,25.34,38.52,51.76,14.55.82,29.06,1.95L347,197.16q-17.65-1.48-35.35-2.32ZM181.53,254c-3.89.35-5.84.53-9.73.92,1.53-4.42,2.31-6.63,3.89-11.05C178,247.93,179.21,250,181.53,254Z"/><path class="cls-1" d="M418.48,282.35a40,40,0,0,1-14.51.07,23.17,23.17,0,0,1-15.32-9c-4-5.14-5.58-11.39-4.58-19.15s4.2-13.42,9.89-17.32,12.19-5.27,19.69-4.09a31.65,31.65,0,0,1,10.56,3.54,40.47,40.47,0,0,1,10.14,8.79c1.53,1.74,2.28,2.62,3.8,4.37q11.31-10.22,22.81-20.19l-3-3.56c-10-12.52-26.07-20.55-41-22.45-15.83-2-31.27.49-45.43,9.82-12.51,8.24-20.2,22.76-21.52,37.28-1.29,14.18,3,29.54,12.66,40.46A64.12,64.12,0,0,0,400,311.4c15.62,2.4,33.38.1,46.71-9.43l1.56-1.11,8.36-40.09q-16.65-3.47-33.41-6.34Z"/><path class="cls-1" d="M504.83,246.48l5.59-21.69q-18.89-4.74-37.89-8.94l-4.63,21.5c-2.25,18.09-2.58,28.18-5,46.25,1.72.38,23.27,5.7,24.87,6.1C493.73,272.6,498.74,263.53,504.83,246.48Z"/><circle class="cls-1" cx="470.36" cy="309.23" r="18.31"/></g></svg>