<svg xmlns="http://www.w3.org/2000/svg" viewBox="0 0 53.37 44.12"><defs><style>.cls-1{fill:#28262b;}</style></defs><title>Pass The Bomb Assets</title><g id="Mixed_Grit_Halftone_2" data-name="Mixed Grit Halftone 2"><circle class="cls-1" cx="38.49" cy="16.15" r="1.64"/><path class="cls-1" d="M43.06,7.66h-5V5.31A5.31,5.31,0,0,0,32.8,0H20.64a5.31,5.31,0,0,0-5.31,5.31V7.66h-5A10.39,10.39,0,0,0,0,18v15.7A10.39,10.39,0,0,0,10.38,44.12H43.06A10.39,10.39,0,0,0,53.43,33.74V18A10.39,10.39,0,0,0,43.06,7.66ZM18.63,5.31a2,2,0,0,1,2-2H32.8a2,2,0,0,1,2,2V7.66H18.63ZM50.14,33.74a7.09,7.09,0,0,1-7.08,7.08H10.38a7.09,7.09,0,0,1-7.08-7.08V18A7.09,7.09,0,0,1,10.38,11H43.06A7.09,7.09,0,0,1,50.14,18Z"/><path class="cls-1" d="M26.72,14.5A11.39,11.39,0,1,0,38.1,25.89,11.4,11.4,0,0,0,26.72,14.5Zm0,19.48a8.09,8.09,0,1,1,8.09-8.09A8.1,8.1,0,0,1,26.72,34Z"/></g></svg>