<svg id="Index" xmlns="http://www.w3.org/2000/svg" viewBox="0 0 28.64 34.49"><defs><style>.cls-1{fill:#f7f7f7;}</style></defs><title>lock-icon</title><g id="Isolation_Mode" data-name="Isolation Mode"><path class="cls-1" d="M23.68,13.84V9.42A9.72,9.72,0,0,0,14.33.07,9.72,9.72,0,0,0,5,9.42v4.42a5.9,5.9,0,0,0-5,5.82v8.92a5.91,5.91,0,0,0,5.9,5.9H22.79a5.91,5.91,0,0,0,5.9-5.9V19.66A5.9,5.9,0,0,0,23.68,13.84Zm-9.35-12a7.85,7.85,0,0,1,7.55,7.55v4.34H18.53V10c0-2.67-1.77-4.6-4.2-4.6s-4.2,1.94-4.2,4.6v3.79H6.78V9.42A7.85,7.85,0,0,1,14.33,1.87Zm-2.41,11.9V10a2.53,2.53,0,0,1,2.41-2.8A2.53,2.53,0,0,1,16.74,10v3.79Zm15,14.82a4.11,4.11,0,0,1-4.1,4.1H5.87a4.11,4.11,0,0,1-4.1-4.1V19.66a4.11,4.11,0,0,1,4.1-4.1H22.79a4.11,4.11,0,0,1,4.1,4.1Z"/><path class="cls-1" d="M17.06,22a2.73,2.73,0,1,0-4.72,1.86,1.16,1.16,0,0,1,.28,1l-.73,3.28a.67.67,0,0,0,.65.81h3.58a.67.67,0,0,0,.65-.81L16,24.9a1.15,1.15,0,0,1,.27-1A2.71,2.71,0,0,0,17.06,22Z"/></g></svg>