<?xml version="1.0" encoding="utf-8"?>
<!-- Generator: Adobe Illustrator 21.0.0, SVG Export Plug-In . SVG Version: 6.00 Build 0)  -->
<svg version="1.1" id="Layer_1" xmlns="http://www.w3.org/2000/svg" xmlns:xlink="http://www.w3.org/1999/xlink" x="0px" y="0px"
	 viewBox="0 0 480.8 342" style="enable-background:new 0 0 480.8 342;" xml:space="preserve">
<style type="text/css">
	.st0{opacity:0.5;fill:#E2810C;enable-background:new    ;}
	.st1{fill:#F7F7F7;}
	.st2{fill:#FFFFFF;}
	.st3{fill:#FF2615;}
</style>
<title>logo</title>
<g id="Mixed_Grit_Halftone_2">
	<path class="st0" d="M136.7,187.1c-0.1-0.2,0.5-0.5,0.5-0.5L136.7,187.1z M257.2,227l0.4,0.5C257.6,228.3,257.2,228.1,257.2,227z"
		/>
	<path class="st1" d="M474.3,188c-2.7-6.5-6.8-12.4-12.1-17.1c-5.4-4.8-11.8-8.5-18.6-10.9c-2.6-0.9-5.3-1.6-8.1-2.2
		c5.5-6.2,8.5-14.2,8.3-22.5v-0.2c0-10.3-3.7-17-7.2-21c2.4-4.8,3.7-10,3.6-15.4v-0.2c0-4.3-0.8-8.6-2.5-12.6
		c-1.6-3.7-3.8-7-6.6-9.9c-4-3.9-8.8-6.8-14.1-8.6c-5.5-1.8-11.3-2.6-17.1-2.5h-36.3c-3.5,0-7,1.1-9.9,3.1c-2.9-2-6.4-3.1-9.9-3.1
		h-17.3c-6.1,0-11.8,3.1-15,8.4l-5.6,9.1l-5.6-9.1c-3.2-5.2-8.9-8.4-15-8.3h-13.9c4.1-4.6,3.7-11.6-0.8-15.7c-0.4-0.4-0.8-0.7-1.3-1
		l-1.8-1.2l0.6-2c0.9-3.3,0.3-6.9-1.9-9.7c-3.7-4.9-10.6-5.9-15.5-2.2c-0.1,0.1-0.2,0.1-0.2,0.2l-1.7,1.3l-1.8-1.2
		c-5.1-3.4-12-2-15.4,3.1c-2,3-2.4,6.7-1.1,10l0.7,2l-1.6,1.3c-1.3,1-2.3,2.3-3.1,3.8c-0.3,0-0.6,0-0.9,0
		c-7.1-0.1-13.6,3.9-16.8,10.2l-0.2,0.4c-13.2,0.8-25.7,6.2-35.2,15.4c-0.9,0.9-1.8,1.8-2.6,2.8c-1.3-2.4-3-4.6-4.9-6.6
		c-4-3.9-8.8-6.8-14.1-8.6c-5.5-1.8-11.3-2.6-17.1-2.5H98.5c-9.7,0-17.5,7.9-17.5,17.6v70.8c0,0.7,0.1,1.4,0.1,2.1
		c-3.7,0.3-7.3,1.1-10.9,2.2c-5.2,1.7-10,4.3-14.2,7.8c-4.2,3.5-7.5,7.9-9.7,12.8c-2.2,5-3.4,10.3-3.4,15.8v0.2
		c-0.3,8.4,2.7,16.7,8.4,22.9l-6.5,7.8c-6.2,7.5-5.2,18.5,2.2,24.8c0.2,0.2,0.4,0.3,0.6,0.5c5.4,4.1,11.3,7.3,17.7,9.5
		c7.9,2.7,16.1,4,24.4,4c5.7,0.1,11.4-0.7,16.9-2.3c5.3-1.5,10.3-4.1,14.6-7.5c2.7-2.1,5.1-4.7,7.1-7.5c0.5,0.6,1.1,1.1,1.6,1.6
		c5.1,5,11.1,8.9,17.7,11.6c12.4,4.9,26,5.6,38.8,1.8c1.6-0.5,3.2-1.1,4.8-1.7c3,2.2,6.7,3.4,10.4,3.4l0,0c5,0,9.7-2.1,13.1-5.8
		l5.8-6.4l0.4,0.4c4.8,4.5,10.5,7.8,16.7,9.7c12.6,3.7,25.9,3.7,38.5,0c4.2-1.3,8.2-3.2,11.8-5.7c3.3,4.4,8.5,7,14,7H317
		c7.2,0,13.7-4.4,16.3-11.1l1.1-2.9h11.1l1.2,3c2.7,6.6,9.1,11,16.3,10.9h15.4c2.7,0,5.3-0.6,7.7-1.8c2.4,1.2,5,1.8,7.7,1.8h26
		c8,0.1,15.9-1.2,23.4-3.8c6.9-2.4,13.3-6.1,18.8-11.1c5.2-4.8,9.4-10.7,12.1-17.3c2.7-6.7,4.1-13.8,4.1-21V209
		C478.3,201.8,477,194.7,474.3,188z M129.5,171.4c-0.1-0.2,0.6-0.6,0.6-0.6L129.5,171.4z M257,213.7l0.5,0.6
		C257.5,215.1,257,214.8,257,213.7z"/>
	<path d="M156,117.1c-0.5-0.3-0.8-0.8-0.9-1.4c-0.1-0.5,0.2-1.1,0.6-1.4c1.3-1,2.4-2.2,3.4-3.4c2.5-3.1,3.8-7.2,3.8-12.1v-0.2
		c0-2.7-0.5-5.4-1.5-7.8c-1-2.2-2.3-4.3-4.1-6c-2.6-2.6-5.9-4.5-9.4-5.7c-4.3-1.3-8.7-2-13.1-1.9H98.5c-3,0-5.4,2.4-5.4,5.4v70.8
		c0,3,2.4,5.4,5.4,5.4h0h36.6c9.7,0,17.4-2,22.8-6c5.6-4.1,8.5-9.9,8.5-17.3v-0.2c0-5.7-1.6-10.3-4.7-13.6
		C160.1,119.8,158.1,118.3,156,117.1z M117.9,128.7c0-0.9,0.8-1.7,1.7-1.7h12.9c3.2,0,5.5,0.5,6.9,1.5c1.2,0.8,1.9,2.2,1.8,3.6v0.2
		c0.1,1.5-0.6,2.9-1.9,3.8c-1.5,1-3.7,1.5-6.6,1.5h-13.1c-0.9,0-1.7-0.8-1.7-1.7L117.9,128.7z M138,103.2c0.1,1.4-0.6,2.8-1.8,3.6
		c-1.4,0.9-3.7,1.4-6.6,1.4h-10c-0.9,0-1.7-0.8-1.7-1.7v-6.6c0-0.9,0.8-1.7,1.7-1.7H130c2.9,0,5,0.5,6.3,1.4
		c1.2,0.8,1.8,2.1,1.7,3.5V103.2z"/>
	<path d="M343.9,77.1h-17.3c-1.9,0-3.6,1-4.6,2.6l-14.5,23.5c-0.5,0.8-1.5,1.1-2.4,0.6c-0.2-0.1-0.4-0.3-0.6-0.6l-14.5-23.5
		c-1-1.6-2.7-2.6-4.6-2.6h-17.3c-3,0-5.4,2.4-5.4,5.4v70.8c0,3,2.4,5.4,5.4,5.4l0,0h14.1c3,0,5.4-2.4,5.4-5.4l0,0v-29
		c0-0.9,0.7-1.7,1.7-1.7c0.6,0,1.1,0.3,1.5,0.8l13.8,21.1h2.5l13.8-21.2c0.5-0.8,1.6-1,2.4-0.5c0.5,0.3,0.8,0.9,0.8,1.5v29.2
		c0,3,2.4,5.4,5.4,5.4l0,0h14.4c3,0,5.4-2.4,5.4-5.4l0,0V82.5C349.3,79.5,346.9,77.1,343.9,77.1z"/>
	<path d="M427,121.5c-1.7-1.8-3.7-3.3-5.8-4.5c-0.5-0.3-0.8-0.8-0.9-1.4c-0.1-0.5,0.2-1.1,0.6-1.4c1.3-1,2.4-2.2,3.4-3.4
		c2.5-3.1,3.8-7.2,3.8-12.1v-0.2c0-2.7-0.5-5.4-1.5-7.8c-1-2.2-2.3-4.3-4.1-6c-2.7-2.6-5.9-4.5-9.4-5.7c-4.3-1.3-8.7-2-13.2-1.9
		h-36.3c-3,0-5.4,2.4-5.4,5.4v70.8c0,3,2.4,5.4,5.4,5.4l0,0h36.6c9.7,0,17.4-2,22.8-6c5.6-4.1,8.5-9.9,8.5-17.3v-0.2
		C431.7,129.4,430.1,124.8,427,121.5z M383,128.7c0-0.9,0.8-1.7,1.7-1.7h12.9c3.2,0,5.5,0.5,6.9,1.5c1.2,0.8,1.9,2.2,1.8,3.6v0.2
		c0.1,1.5-0.6,2.9-1.9,3.8c-1.5,1-3.7,1.5-6.6,1.5h-13.1c-0.9,0-1.7-0.8-1.7-1.7L383,128.7z M403.1,103.2c0.1,1.4-0.6,2.8-1.8,3.6
		c-1.4,0.9-3.7,1.4-6.6,1.4h-10c-0.9,0-1.7-0.8-1.7-1.7v-6.6c0-0.9,0.8-1.7,1.7-1.7h10.5c2.9,0,5,0.5,6.3,1.4
		c1.1,0.8,1.8,2.1,1.7,3.4L403.1,103.2z"/>
	<path d="M114.6,206.5c-3-2.1-6.2-3.8-9.7-5c-4-1.4-8.1-2.6-12.3-3.5c-2.6-0.6-4.8-1.1-6.5-1.7c-1.3-0.4-2.6-0.9-3.8-1.5
		c-0.6-0.3-1.1-0.6-1.5-1.1c-0.2-0.4-0.4-0.9-0.3-1.4v-0.2c0-0.8,0.5-1.6,1.2-2.1c1.4-0.8,3.1-1.2,4.7-1.1c3.5,0,7,0.7,10.2,1.8
		c2.7,1,5.4,2.2,7.9,3.8c2.4,1.5,5.6,0.8,7.2-1.5l6.8-9.6c0.8-1.2,1.2-2.7,0.9-4.1c-0.2-1.4-1-2.6-2.2-3.4
		c-3.6-2.5-7.6-4.5-11.8-5.9c-6-1.9-12.2-2.8-18.4-2.7c-4.5-0.1-8.9,0.6-13.1,1.9c-3.7,1.2-7.1,3-10.1,5.5c-2.8,2.3-5,5.2-6.5,8.5
		c-1.5,3.4-2.3,7.1-2.2,10.8v0.2c-0.3,7.3,3.2,14.3,9.3,18.4c3,2,6.3,3.6,9.8,4.7c3.6,1.2,7.5,2.2,11.7,3.2c2.6,0.6,4.7,1.1,6.3,1.7
		c1.3,0.4,2.5,0.9,3.7,1.6c0.6,0.3,1,0.7,1.4,1.2c0.2,0.4,0.3,0.8,0.3,1.2v0.2c0,1-0.5,1.9-1.4,2.4c-1.8,0.9-3.7,1.2-5.7,1.1
		c-7.8,0-15.3-2.5-21.6-7.1c-2.3-1.6-5.4-1.2-7.2,0.9l-7.6,9.1c-1.9,2.3-1.6,5.7,0.7,7.6c0.1,0,0.1,0.1,0.2,0.1
		c4.3,3.3,9.1,5.9,14.3,7.6c6.6,2.2,13.5,3.4,20.5,3.4c4.5,0,9.1-0.6,13.4-1.8c3.8-1.1,7.4-2.9,10.5-5.3c2.9-2.3,5.3-5.2,6.9-8.6
		c1.7-3.6,2.5-7.5,2.5-11.5v-0.2c0.1-3.5-0.7-7-2.2-10.2C119.5,210.9,117.3,208.4,114.6,206.5z"/>
	<path d="M201.3,179.3L201.3,179.3c-4-3.9-8.7-6.9-13.8-9c-11.2-4.4-23.6-4.4-34.8,0c-5.2,2.1-9.9,5.2-13.9,9.1
		c-8.1,7.9-12.6,18.7-12.6,30v0.2c0,5.6,1.1,11.2,3.3,16.4c2.1,5,5.2,9.6,9.1,13.4c4,3.9,8.7,6.9,13.8,9c9.8,3.9,20.5,4.4,30.6,1.4
		c3.2-1,6.3-2.3,9.2-3.9c0.6-0.4,1.4-0.3,2,0.2l4,3.6c2.2,2,5.6,1.8,7.6-0.4l6.1-6.8c2-2.2,1.8-5.6-0.4-7.6c0,0-0.1-0.1-0.1-0.1
		l-2.8-2.4c-0.6-0.6-0.8-1.5-0.3-2.2c1.5-2.6,2.8-5.4,3.7-8.3c1.2-4,1.9-8.2,1.9-12.5v-0.2c0-5.6-1.1-11.2-3.3-16.4
		C208.3,187.7,205.2,183.1,201.3,179.3z M174.3,209.2l-6.1,6.8c-2,2.2-1.8,5.7,0.4,7.6c0,0,0.1,0,0.1,0.1l2.4,2.1
		c0.6,0.5,0.8,1.2,0.5,1.9c-0.2,0.7-0.9,1.1-1.6,1.1c-2.5,0-5.1-0.5-7.4-1.6c-2.2-1-4.1-2.4-5.7-4.2c-1.6-1.8-2.9-3.9-3.7-6.1
		c-0.9-2.4-1.3-4.9-1.3-7.4v-0.2c0-2.5,0.4-5,1.3-7.4c0.8-2.2,2-4.3,3.6-6.1c1.6-1.8,3.5-3.2,5.6-4.2c2.3-1.1,4.8-1.6,7.3-1.5
		c2.6,0,5.1,0.5,7.4,1.6c2.2,1,4.2,2.5,5.8,4.2c1.6,1.8,2.9,3.9,3.8,6.2c0.9,2.4,1.3,4.9,1.3,7.4v0.2c0,0.2,0,0.4,0,0.7
		c0,0.9-0.8,1.7-1.8,1.7c-0.4,0-0.8-0.2-1.1-0.4l-3.1-2.9C179.8,206.8,176.4,207,174.3,209.2C174.3,209.2,174.3,209.2,174.3,209.2
		L174.3,209.2z"/>
	<path d="M290,168.5h-14.9c-3,0-5.4,2.4-5.4,5.4l0,0v40.3c0,5-1.1,8.6-3.3,10.8s-5.2,3.4-9.1,3.4s-6.8-1.1-9-3.5s-3.4-6.1-3.4-11.2
		V174c0-3-2.4-5.4-5.4-5.4l0,0h-14.9c-3,0-5.4,2.4-5.4,5.4l0,0v40.2c-0.1,5.6,0.8,11.2,2.6,16.5c1.6,4.5,4.2,8.5,7.6,11.8
		c3.4,3.2,7.6,5.6,12.1,6.9c5.1,1.5,10.3,2.3,15.6,2.2c5.3,0.1,10.6-0.7,15.6-2.2c9.3-2.7,16.8-9.7,20-18.9c1.9-5.5,2.9-11.2,2.7-17
		V174c0-3-2.4-5.4-5.4-5.5C290.1,168.5,290,168.5,290,168.5z"/>
	<path d="M353.3,171.3c-0.8-2-2.8-3.3-5-3.3h-16.1c-2.2,0-4.2,1.3-5,3.3l-30.1,71.3c-1.2,2.8,0.1,5.9,2.9,7.1
		c0.7,0.3,1.4,0.4,2.1,0.4H317c2.2,0,4.2-1.3,5-3.4l3.8-9.4c0.3-0.7,0.9-1.1,1.6-1.1h25.2c0.7,0,1.3,0.4,1.6,1.1l3.9,9.5
		c0.8,2,2.8,3.4,5,3.4h15.4c3,0,5.4-2.4,5.4-5.4c0-0.7-0.1-1.4-0.4-2.1L353.3,171.3z"/>
	<path d="M420.3,250.1c6.4-0.4,12.8-1.2,19-3c5.4-1.8,10.4-4.8,14.6-8.6c3.9-3.6,7.1-8.1,9.1-13c2.1-5.2,3.2-10.7,3.1-16.3v-0.2
		c0-5.6-1-11.1-3.1-16.3c-2-4.9-5.1-9.3-9-12.8c-4.2-3.7-9.1-6.6-14.4-8.3c-6.2-2-12.7-3-19.2-2.9h-26.5c-3,0-5.4,2.4-5.4,5.4
		c0,4.7,0,9.3,0,14c0,9.6,0,19.3,0,28.9c0,8,0,16,0,24c0,3.2-0.4,7,3,8.8c1.8,0.9,11.3,0.7,13.9,0.7
		C410.3,250.4,415.3,250.4,420.3,250.1z M435.1,222.6c-3.6,3.1-8.4,4.7-14.4,4.7h-5.3c-0.9,0-1.7-0.8-1.7-1.7v-32.5
		c0-0.9,0.8-1.7,1.7-1.7h5.3c6,0,10.8,1.6,14.4,4.7s5.3,7.5,5.3,13.1v0.2C440.4,215.1,438.6,219.6,435.1,222.6z"/>
	<path d="M252.3,101.6c-2-4.7-4.8-8.9-8.4-12.5l3-5.7c1.7-3.3,0.4-7.3-2.9-9l-4.4-2.2c1.5-3.3,3.9-6.2,6.9-8.3c1.5-1,1.8-3,0.8-4.5
		c-1-1.5-3-1.8-4.5-0.8l0,0c-3.9,2.7-6.9,6.4-8.9,10.6l-4.9-2.5c-3.3-1.7-7.3-0.4-9,2.9l-3.6,7c-1.2-0.1-2.3-0.1-3.5-0.1
		c-5.8,0-11.6,1.1-17,3.2c-5.1,2.1-9.7,5.1-13.6,8.9c-7.9,7.7-12.3,18.3-12.3,29.3v0.2c-0.1,5.5,1,11,3.1,16c2.1,4.9,5.2,9.4,9,13.1
		c3.9,3.8,8.5,6.7,13.5,8.8c10.9,4.3,23.1,4.3,34.1,0c5.1-2.1,9.7-5.1,13.6-8.9c7.9-7.7,12.3-18.3,12.3-29.3v-0.2
		C255.5,112.1,254.4,106.7,252.3,101.6z"/>
	<path class="st2" d="M181.5,122.4c-1.5,0-2.8-1.2-2.8-2.8l0,0c0-18.8,15.3-34.1,34.1-34.1c1.5,0,2.8,1.2,2.8,2.8
		c0,1.5-1.2,2.8-2.8,2.8l0,0c-15.8,0-28.6,12.8-28.6,28.6C184.2,121.2,183,122.4,181.5,122.4z"/>
	<path class="st3" d="M258.9,42.4l-2.2,7.9c-0.2,0.6,0.1,1.2,0.6,1.5l6.9,4.5c0.6,0.4,0.8,1.3,0.4,1.9c-0.2,0.4-0.6,0.6-1.1,0.6
		l-8.2,0.4c-0.6,0-1.1,0.4-1.2,1l-2.2,7.9c-0.2,0.7-1,1.1-1.7,0.9c-0.4-0.1-0.7-0.4-0.9-0.8l-2.9-7.7c-0.2-0.5-0.7-0.9-1.3-0.9
		l-8.2,0.4c-0.8,0-1.4-0.6-1.4-1.3c0-0.4,0.2-0.8,0.5-1.1l6.4-5.1c0.5-0.4,0.6-1,0.4-1.5l-2.9-7.7c-0.3-0.7,0.1-1.5,0.8-1.7
		c0.4-0.1,0.8-0.1,1.2,0.1l6.9,4.5c0.5,0.3,1.1,0.3,1.6-0.1l6.5-5.1c0.6-0.5,1.4-0.3,1.9,0.2C258.9,41.6,259,42,258.9,42.4z"/>
	<path class="st2" d="M344.3,212c-0.1,2.3-2,4-4.3,3.9c-2.1-0.1-3.8-1.8-3.9-3.9c0-4,4.1-10,4.1-10S344.3,208,344.3,212z"/>
	<path class="st1" d="M37.4,277.7l6.2,19.1c0.4,1.2,1.5,2,2.7,2h20.1c1.6,0,2.8,1.3,2.8,2.9c0,0.9-0.4,1.7-1.1,2.2l-16.3,11.9
		c-1,0.7-1.4,2-1,3.2l6.2,19.1c0.5,1.5-0.3,3.1-1.8,3.6c-0.9,0.3-1.8,0.1-2.6-0.4l-16.3-11.8c-1-0.7-2.4-0.7-3.4,0l-16.3,11.8
		c-1.3,0.9-3.1,0.6-4-0.6c-0.5-0.7-0.7-1.7-0.4-2.6l6.2-19.1c0.4-1.2,0-2.5-1-3.2L1.2,304c-1.3-0.9-1.6-2.7-0.6-4
		c0.5-0.7,1.4-1.2,2.3-1.2H23c1.2,0,2.4-0.8,2.7-2l6.3-19.1c0.5-1.5,2.2-2.3,3.7-1.7C36.5,276.2,37.1,276.9,37.4,277.7z"/>
	<path class="st1" d="M89.8,1.3l4,12.4c0.2,0.8,1,1.3,1.8,1.3h13c1,0,1.9,0.8,1.9,1.8c0,0.6-0.3,1.2-0.8,1.5l-10.5,7.6
		c-0.7,0.5-0.9,1.3-0.7,2.1l4,12.4c0.3,1-0.2,2-1.2,2.3c-0.6,0.2-1.2,0.1-1.7-0.3l-10.5-7.7c-0.6-0.5-1.5-0.5-2.2,0l-10.5,7.6
		c-0.8,0.6-2,0.4-2.6-0.4c-0.4-0.5-0.5-1.1-0.3-1.7l4-12.4c0.3-0.8,0-1.6-0.6-2.1l-10.5-7.6c-0.8-0.6-1-1.8-0.4-2.6
		c0.3-0.5,0.9-0.8,1.5-0.8h13c0.8,0,1.5-0.5,1.8-1.3l4-12.4c0.3-1,1.3-1.5,2.3-1.2C89.2,0.3,89.7,0.7,89.8,1.3z"/>
	<path class="st1" d="M467.3,41.8l2.6,8.1c0.2,0.5,0.6,0.8,1.1,0.8h8.5c0.7,0,1.2,0.5,1.2,1.2c0,0.4-0.2,0.8-0.5,1l-6.9,5
		c-0.4,0.3-0.6,0.9-0.4,1.3l2.6,8.1c0.2,0.6-0.1,1.3-0.8,1.5c-0.4,0.1-0.8,0.1-1.1-0.2l-6.9-5c-0.4-0.3-1-0.3-1.4,0l-6.9,5
		c-0.5,0.4-1.3,0.3-1.7-0.3c-0.2-0.3-0.3-0.7-0.2-1.1l2.6-8.1c0.2-0.5,0-1-0.4-1.3l-6.9-5c-0.5-0.4-0.7-1.1-0.3-1.7
		c0.2-0.3,0.6-0.5,1-0.5h8.5c0.5,0,1-0.3,1.1-0.8l2.6-8.1c0.2-0.6,0.9-1,1.5-0.8C466.9,41.1,467.2,41.4,467.3,41.8z"/>
</g>
</svg>
