<svg xmlns="http://www.w3.org/2000/svg" viewBox="0 0 67.78 64.8"><defs><style>.cls-1{fill:#ffb510;}</style></defs><title>Pass The Bomb Assets</title><g id="Mixed_Grit_Halftone_2" data-name="Mixed Grit Halftone 2"><path class="cls-1" d="M36.63,1.94l6,18.73a2.8,2.8,0,0,0,2.66,1.94L65,22.68a2.8,2.8,0,0,1,1.63,5.07l-16,11.51a2.8,2.8,0,0,0-1,3.13l6,18.73a2.8,2.8,0,0,1-4.32,3.12L35.45,52.63a2.8,2.8,0,0,0-3.29,0l-16,11.51A2.8,2.8,0,0,1,11.91,61L18,42.3a2.8,2.8,0,0,0-1-3.14L1.15,27.55a2.8,2.8,0,0,1,1.66-5.06l19.67.06a2.8,2.8,0,0,0,2.67-1.93L31.3,1.93A2.8,2.8,0,0,1,36.63,1.94Z"/></g></svg>