<svg xmlns="http://www.w3.org/2000/svg" viewBox="0 0 452.92 538.03"><defs><style>.cls-1{fill:#1d1d1b;opacity:.15}.cls-2{fill:#fff}.cls-3,.cls-8{fill:none;stroke-linejoin:round}.cls-3{stroke:#dbdbdb;stroke-width:21.43px}.cls-4{fill:#302d33}.cls-5{fill:#282428}.cls-6{fill:#232123}.cls-7{fill:#403d44}.cls-8{stroke:#302d33;stroke-linecap:round;stroke-width:10.85px}.cls-9{fill:#f7f7f7}</style></defs><title>bomb</title><g id="Mixed_Grit_Halftone_2" data-name="Mixed Grit Halftone 2"><ellipse class="cls-1" cx="226.46" cy="482.75" rx="226.46" ry="55.28"/><path class="cls-2" d="M305.63 120.25A10.72 10.72 0 0 1 296 104.9c14.86-31 42.42-53.41 77.61-63a10.72 10.72 0 1 1 5.62 20.68c-29.08 7.9-51.77 26.2-63.9 51.53a10.72 10.72 0 0 1-9.7 6.14z"/><path class="cls-3" d="M305.64 109.53a103.07 103.07 0 0 1 10.91-17.9"/><path class="cls-4" d="M338.24 173.56l7.24-18.56a24.38 24.38 0 0 0-8-28.26c-7.23-5.5-17.87-11.94-33.15-17.89s-27.47-8.41-36.52-9.25a24.38 24.38 0 0 0-25 15.43l-7.23 18.57a188.44 188.44 0 0 0-82.54 363.5c97 37.78 206.19-10.2 244-107.16a188.5 188.5 0 0 0-58.8-216.38z"/><path class="cls-5" d="M42.31 380.07l.31 1z"/><path class="cls-6" d="M339 174.63l7.19-19.63a24.38 24.38 0 0 0-8-28.26c-7.23-5.5-17.87-11.94-33.15-17.89s-27.47-8.41-36.52-9.25a24.38 24.38 0 0 0-25 15.43l-7.23 18.57s50.88 4.92 102.71 41.03z"/><path class="cls-5" d="M40.36 373.72c.34 1.17.68 2.33 1 3.49q-.49-1.74-1-3.49z"/><ellipse class="cls-7" cx="172.12" cy="272.99" rx="121.5" ry="70.59" transform="rotate(-45 172.127 272.993)"/><path class="cls-2" d="M73.43 333.38a10.72 10.72 0 0 1-10.72-10.72c0-87.54 71.22-158.77 158.77-158.77a10.72 10.72 0 1 1 0 21.43c-75.73 0-137.33 61.61-137.33 137.33a10.72 10.72 0 0 1-10.72 10.73z"/><path class="cls-8" d="M386.93 25.94l8.77-20.19M364.95 25.4l-8.07-20.48M385.63 79l8.07 20.48m7.85-35.64l20.19 8.78m-19.65-30.75l20.48-8.08"/><path class="cls-9" d="M67.53 80.16l8.64 10.62a2 2 0 0 0 2.22.59l12.77-4.94a2 2 0 0 1 2.34 2.88l-7.43 11.5a2 2 0 0 0 .13 2.29l8.64 10.62a2 2 0 0 1-2 3.12l-13.23-3.51a2 2 0 0 0-2.14.83L70 125.64a2 2 0 0 1-3.59-1L65.68 111a2 2 0 0 0-1.45-1.78L51 105.73a2 2 0 0 1-.2-3.7l12.77-4.94a2 2 0 0 0 1.24-1.93l-.75-13.67a2 2 0 0 1 3.47-1.33zM264.89 17l3.27 8.67a1.32 1.32 0 0 0 1.3.85l9.26-.43a1.32 1.32 0 0 1 .88 2.35l-7.24 5.79a1.32 1.32 0 0 0-.41 1.5l3.27 8.67a1.32 1.32 0 0 1-2 1.57l-7.74-5.1A1.32 1.32 0 0 0 264 41l-7.24 5.79a1.32 1.32 0 0 1-2.1-1.38l2.46-8.94a1.32 1.32 0 0 0-.55-1.45l-7.74-5.1a1.32 1.32 0 0 1 .67-2.42l9.26-.43a1.32 1.32 0 0 0 1.21-1l2.46-8.94a1.32 1.32 0 0 1 2.46-.13zm152.67 141.21l-.69 11.24a1.6 1.6 0 0 0 1 1.59l10.48 4.13a1.6 1.6 0 0 1-.19 3L417.27 181a1.6 1.6 0 0 0-1.2 1.46l-.69 11.24a1.6 1.6 0 0 1-3 .76l-6-9.5a1.6 1.6 0 0 0-1.75-.69l-10.91 2.82a1.6 1.6 0 0 1-1.64-2.57l7.17-8.69a1.6 1.6 0 0 0 .12-1.88l-6-9.5a1.6 1.6 0 0 1 1.94-2.35l10.48 4.13a1.6 1.6 0 0 0 1.83-.47l7.17-8.69a1.6 1.6 0 0 1 2.77 1.14z"/><path class="cls-6" d="M320.12 159.84a187.89 187.89 0 0 1 27.62 98.36C347.75 362.46 263.23 447 159 447a187.89 187.89 0 0 1-98.36-27.62A188.66 188.66 0 0 0 221.8 509.8c104.2-.03 188.74-84.55 188.74-188.8a188.66 188.66 0 0 0-90.42-161.16z"/></g></svg>