<svg xmlns="http://www.w3.org/2000/svg" viewBox="0 0 452.92 538.03"><defs><style>.cls-1{fill:#1d1d1b;opacity:0.15;}.cls-2{fill:#fff;}.cls-3,.cls-8{fill:none;stroke-linejoin:round;}.cls-3{stroke:#dbdbdb;stroke-width:21.43px;}.cls-4{fill:#302d33;}.cls-5{fill:#282428;}.cls-6{fill:#232123;}.cls-7{fill:#403d44;}.cls-8{stroke:#302d33;stroke-linecap:round;stroke-width:10.85px;}.cls-9{fill:#f7f7f7;}</style></defs><title>bomb</title><g id="Mixed_Grit_Halftone_2" data-name="Mixed Grit Halftone 2"><ellipse class="cls-1" cx="226.46" cy="482.75" rx="226.46" ry="55.28"/><path class="cls-2" d="M305.63,120.25A10.72,10.72,0,0,1,296,104.9c14.86-31,42.42-53.41,77.61-63a10.72,10.72,0,1,1,5.62,20.68c-29.08,7.9-51.77,26.2-63.9,51.53A10.72,10.72,0,0,1,305.63,120.25Z"/><path class="cls-3" d="M305.64,109.53a103.07,103.07,0,0,1,10.91-17.9"/><path class="cls-4" d="M338.24,173.56,345.48,155a24.38,24.38,0,0,0-8-28.26c-7.23-5.5-17.87-11.94-33.15-17.89s-27.47-8.41-36.52-9.25a24.38,24.38,0,0,0-25,15.43l-7.23,18.57a188.44,188.44,0,0,0-82.54,363.5c97,37.78,206.19-10.2,244-107.16A188.5,188.5,0,0,0,338.24,173.56Z"/><path class="cls-5" d="M42.31,380.07l.31,1Z"/><path class="cls-6" d="M339,174.63,346.19,155a24.38,24.38,0,0,0-8-28.26c-7.23-5.5-17.87-11.94-33.15-17.89s-27.47-8.41-36.52-9.25a24.38,24.38,0,0,0-25,15.43l-7.23,18.57S287.17,138.52,339,174.63Z"/><path class="cls-5" d="M40.36,373.72c.34,1.17.68,2.33,1,3.49Q40.87,375.47,40.36,373.72Z"/><ellipse class="cls-7" cx="172.12" cy="272.99" rx="121.5" ry="70.59" transform="translate(-142.62 201.67) rotate(-45)"/><path class="cls-2" d="M73.43,333.38a10.72,10.72,0,0,1-10.72-10.72c0-87.54,71.22-158.77,158.77-158.77a10.72,10.72,0,1,1,0,21.43c-75.73,0-137.33,61.61-137.33,137.33A10.72,10.72,0,0,1,73.43,333.38Z"/><line class="cls-8" x1="386.93" y1="25.94" x2="395.7" y2="5.75"/><line class="cls-8" x1="364.95" y1="25.4" x2="356.88" y2="4.92"/><line class="cls-8" x1="385.63" y1="79" x2="393.7" y2="99.48"/><line class="cls-8" x1="401.55" y1="63.84" x2="421.74" y2="72.62"/><line class="cls-8" x1="402.09" y1="41.87" x2="422.57" y2="33.79"/><path class="cls-9" d="M67.53,80.16l8.64,10.62a2,2,0,0,0,2.22.59l12.77-4.94a2,2,0,0,1,2.34,2.88l-7.43,11.5a2,2,0,0,0,.13,2.29l8.64,10.62a2,2,0,0,1-2,3.12l-13.23-3.51a2,2,0,0,0-2.14.83L70,125.64a2,2,0,0,1-3.59-1L65.68,111a2,2,0,0,0-1.45-1.78L51,105.73a2,2,0,0,1-.2-3.7l12.77-4.94a2,2,0,0,0,1.24-1.93l-.75-13.67A2,2,0,0,1,67.53,80.16Z"/><path class="cls-9" d="M264.89,17l3.27,8.67a1.32,1.32,0,0,0,1.3.85l9.26-.43a1.32,1.32,0,0,1,.88,2.35l-7.24,5.79a1.32,1.32,0,0,0-.41,1.5l3.27,8.67a1.32,1.32,0,0,1-2,1.57l-7.74-5.1A1.32,1.32,0,0,0,264,41l-7.24,5.79a1.32,1.32,0,0,1-2.1-1.38l2.46-8.94a1.32,1.32,0,0,0-.55-1.45l-7.74-5.1a1.32,1.32,0,0,1,.67-2.42l9.26-.43a1.32,1.32,0,0,0,1.21-1l2.46-8.94A1.32,1.32,0,0,1,264.89,17Z"/><path class="cls-9" d="M417.56,158.21l-.69,11.24a1.6,1.6,0,0,0,1,1.59l10.48,4.13a1.6,1.6,0,0,1-.19,3L417.27,181a1.6,1.6,0,0,0-1.2,1.46l-.69,11.24a1.6,1.6,0,0,1-3,.76l-6-9.5a1.6,1.6,0,0,0-1.75-.69l-10.91,2.82a1.6,1.6,0,0,1-1.64-2.57l7.17-8.69a1.6,1.6,0,0,0,.12-1.88l-6-9.5a1.6,1.6,0,0,1,1.94-2.35l10.48,4.13a1.6,1.6,0,0,0,1.83-.47l7.17-8.69A1.6,1.6,0,0,1,417.56,158.21Z"/><path class="cls-6" d="M320.12,159.84a187.89,187.89,0,0,1,27.62,98.36C347.75,362.46,263.23,447,159,447a187.89,187.89,0,0,1-98.36-27.62,188.66,188.66,0,0,0,161.16,90.42C326,509.77,410.54,425.25,410.54,321A188.66,188.66,0,0,0,320.12,159.84Z"/></g></svg>