<svg xmlns="http://www.w3.org/2000/svg" viewBox="0 0 42.04 42.03"><defs><style>.cls-1{fill:#f7f7f7;}</style></defs><title>grey</title><g id="Mixed_Grit_Halftone_2" data-name="Mixed Grit Halftone 2"><path class="cls-1" d="M39.59,2.45a8.41,8.41,0,0,0-11.87,0l-6.1,6.1a8.4,8.4,0,0,0-1.26,10.24l-1.57,1.57A8.4,8.4,0,0,0,8.55,21.62l-6.1,6.1A8.39,8.39,0,0,0,14.32,39.58l6.1-6.1a8.4,8.4,0,0,0,1.26-10.24l1.57-1.57a8.38,8.38,0,0,0,10.24-1.26l6.1-6.1A8.4,8.4,0,0,0,39.59,2.45Zm-20.8,25.1a4.28,4.28,0,0,1-1.25,3l-6.1,6.1a4.33,4.33,0,0,1-6.09,0,4.32,4.32,0,0,1,0-6.1l6.1-6.1a4.2,4.2,0,0,1,4.27-1.06L13,26.11A2,2,0,1,0,15.93,29l2.67-2.67A4.33,4.33,0,0,1,18.79,27.55ZM36.7,11.43l-6.1,6.1a4.3,4.3,0,0,1-4.27,1.06l3.31-3.31a2,2,0,0,0-2.89-2.89l-3.31,3.31a4.3,4.3,0,0,1,1.06-4.27l6.1-6.1a4.33,4.33,0,0,1,6.09,0A4.32,4.32,0,0,1,36.7,11.43Z"/></g></svg>