<svg xmlns="http://www.w3.org/2000/svg" viewBox="0 0 59.25 39.85"><defs><style>.cls-1{fill:#fff;}</style></defs><title>arrow</title><g id="Mixed_Grit_Halftone_2" data-name="Mixed Grit Halftone 2"><path class="cls-1" d="M57.9,16.18,44.42,1.71A5.15,5.15,0,0,0,37.59,1,5,5,0,0,0,37,8.37l4.58,4.91A.78.78,0,0,1,41,14.59H5.21A5.14,5.14,0,0,0,0,19.1a5,5,0,0,0,5,5.49H41.17a.78.78,0,0,1,.57,1.31l-5,5.38a5.2,5.2,0,0,0,.15,7.28,5,5,0,0,0,7-.3L57.53,23.62a5,5,0,0,0,.75-1.1,4.92,4.92,0,0,0-.37-6.34Z"/></g></svg>