<svg xmlns="http://www.w3.org/2000/svg" viewBox="0 0 452.92 538.03"><defs><style>.cls-1{fill:#28262b;}.cls-2{fill:#1d1d1b;opacity:0.15;}.cls-3{fill:#fff;}.cls-4,.cls-9{fill:none;stroke-linejoin:round;}.cls-4{stroke:#dbdbdb;stroke-width:21.43px;}.cls-5{fill:#302d33;}.cls-6{fill:#282428;}.cls-7{fill:#232123;}.cls-8{fill:#403d44;}.cls-9{stroke:#302d33;stroke-linecap:round;stroke-width:10.85px;}</style></defs><title>bomb-no-sparkles</title><g id="Layer_1" data-name="Layer 1"><circle class="cls-1" cx="211.01" cy="110.81" r="8.96"/><circle class="cls-1" cx="142.83" cy="134.28" r="4.34"/><circle class="cls-1" cx="358.22" cy="109.59" r="3.12"/><circle class="cls-1" cx="179.1" cy="94.7" r="4.34"/><circle class="cls-1" cx="373.8" cy="178.3" r="4.34"/></g><g id="Mixed_Grit_Halftone_2" data-name="Mixed Grit Halftone 2"><ellipse class="cls-2" cx="226.46" cy="482.75" rx="226.46" ry="55.28"/><path class="cls-3" d="M305.63,120.25A10.72,10.72,0,0,1,296,104.9c14.86-31,42.42-53.41,77.61-63a10.72,10.72,0,1,1,5.62,20.68c-29.08,7.9-51.77,26.2-63.9,51.53A10.72,10.72,0,0,1,305.63,120.25Z"/><path class="cls-4" d="M305.64,109.53a103.07,103.07,0,0,1,10.91-17.9"/><path class="cls-5" d="M338.24,173.56,345.48,155a24.38,24.38,0,0,0-8-28.26c-7.23-5.5-17.87-11.94-33.15-17.89s-27.47-8.41-36.52-9.25a24.38,24.38,0,0,0-25,15.43l-7.23,18.57a188.44,188.44,0,0,0-82.54,363.5c97,37.78,206.19-10.2,244-107.16A188.5,188.5,0,0,0,338.24,173.56Z"/><path class="cls-6" d="M42.31,380.07l.31,1Z"/><path class="cls-7" d="M339,174.63,346.19,155a24.38,24.38,0,0,0-8-28.26c-7.23-5.5-17.87-11.94-33.15-17.89s-27.47-8.41-36.52-9.25a24.38,24.38,0,0,0-25,15.43l-7.23,18.57S287.17,138.52,339,174.63Z"/><path class="cls-6" d="M40.36,373.72c.34,1.17.68,2.33,1,3.49Q40.87,375.47,40.36,373.72Z"/><ellipse class="cls-8" cx="172.12" cy="272.99" rx="121.5" ry="70.59" transform="translate(-142.62 201.67) rotate(-45)"/><path class="cls-3" d="M73.43,333.38a10.72,10.72,0,0,1-10.72-10.72c0-87.54,71.22-158.77,158.77-158.77a10.72,10.72,0,1,1,0,21.43c-75.73,0-137.33,61.61-137.33,137.33A10.72,10.72,0,0,1,73.43,333.38Z"/><line class="cls-9" x1="386.93" y1="25.94" x2="395.7" y2="5.75"/><line class="cls-9" x1="364.95" y1="25.4" x2="356.88" y2="4.92"/><line class="cls-9" x1="385.63" y1="79" x2="393.7" y2="99.48"/><line class="cls-9" x1="401.55" y1="63.84" x2="421.74" y2="72.62"/><line class="cls-9" x1="402.09" y1="41.87" x2="422.57" y2="33.79"/><path class="cls-7" d="M384.64,464.6H345.11A188.52,188.52,0,0,0,324,164.13a187.61,187.61,0,0,1,30.32,102.56c0,104.1-84.39,188.5-188.5,188.5A187.61,187.61,0,0,1,63.3,424.87a188.34,188.34,0,0,0,158.18,85.94c5.91,0,11.74-.29,17.51-.82h92.43a9.41,9.41,0,0,0,0-18.81H305.3q7.22-3.59,14.09-7.76h65.25a9.41,9.41,0,1,0,0-18.81Z"/></g></svg>