<svg xmlns="http://www.w3.org/2000/svg" viewBox="0 0 376.89 538.54"><defs><style>.cls-1{fill:#28262b}.cls-2{fill:#fff}.cls-3{fill:none;stroke:#dbdbdb;stroke-linejoin:round;stroke-width:21.43px}.cls-4{fill:#282428}.cls-5{fill:#232123}</style></defs><title>bombhome</title><g id="Layer_1" data-name="Layer 1"><circle class="cls-1" cx="178.23" cy="111.32" r="8.96"/><circle class="cls-1" cx="110.05" cy="134.78" r="4.34"/><circle class="cls-1" cx="325.45" cy="110.09" r="3.12"/><circle class="cls-1" cx="146.33" cy="95.21" r="4.34"/><circle class="cls-1" cx="341.03" cy="178.81" r="4.34"/></g><g id="Mixed_Grit_Halftone_2" data-name="Mixed Grit Halftone 2"><path class="cls-2" d="M272.86 120.75a10.72 10.72 0 0 1-9.66-15.34c14.86-31 42.42-53.41 77.61-63a10.72 10.72 0 0 1 5.62 20.68c-29.08 7.9-51.77 26.2-63.9 51.53a10.72 10.72 0 0 1-9.67 6.13z"/><path class="cls-3" d="M272.87 110a103.07 103.07 0 0 1 10.91-17.9"/><path class="cls-4" d="M9.54 380.57l.31 1z"/><path class="cls-5" d="M306.19 175.14l7.23-19.64a24.38 24.38 0 0 0-8-28.26c-7.23-5.5-17.87-11.94-33.15-17.89s-27.47-8.41-36.52-9.25a24.38 24.38 0 0 0-25 15.43l-7.23 18.57s50.88 4.9 102.67 41.04z"/><path class="cls-4" d="M7.59 374.23c.34 1.17.68 2.33 1 3.49q-.5-1.72-1-3.49z"/><path class="cls-1" d="M376.89 311.16a188.94 188.94 0 0 0-71.41-137.06l7.23-18.57a24.38 24.38 0 0 0-8-28.26c-7.23-5.5-17.87-11.94-33.15-17.89s-27.47-8.41-36.52-9.25a24.38 24.38 0 0 0-25 15.43l-7.23 18.57A188.77 188.77 0 0 0 .22 323.64H0v214.9h376.89V332.9a187 187 0 0 0 0-21.74z"/></g></svg>