<svg xmlns="http://www.w3.org/2000/svg" viewBox="0 0 480.75 341.97"><defs><style>.cls-1{fill:#e2810c;opacity:.5}.cls-2{fill:#f7f7f7}.cls-3{fill:#fff}.cls-4{fill:#ff2615}</style></defs><title>logo</title><g id="Mixed_Grit_Halftone_2" data-name="Mixed Grit Halftone 2"><path class="cls-1" d="M136.74 187.06c-.1-.18.52-.53.52-.53zM257.19 227l.42.53c0 .8-.42.57-.42-.53z"/><path class="cls-2" d="M474.28 188a48.07 48.07 0 0 0-12.06-17.15A53.44 53.44 0 0 0 443.58 160a61.43 61.43 0 0 0-8.07-2.18 32.54 32.54 0 0 0 8.31-22.47v-.22c0-10.27-3.71-17-7.17-21a32.65 32.65 0 0 0 3.61-15.4v-.22a32 32 0 0 0-2.46-12.64 31.28 31.28 0 0 0-6.63-9.87 36.1 36.1 0 0 0-14.06-8.59A53.1 53.1 0 0 0 400 64.92h-36.27a17.47 17.47 0 0 0-9.9 3.07 17.47 17.47 0 0 0-9.9-3.07h-17.26a17.47 17.47 0 0 0-15 8.36l-5.6 9.09-5.6-9.09a17.47 17.47 0 0 0-15-8.35H271.6a11.11 11.11 0 0 0-2.12-16.69l-1.77-1.17.57-2a11 11 0 0 0-1.85-9.68 11.09 11.09 0 0 0-15.76-2L249 34.68l-1.77-1.17a11.1 11.1 0 0 0-16.53 13.14l.74 2L229.8 50a11.07 11.07 0 0 0-3.07 3.84h-.9A18.78 18.78 0 0 0 209 64l-.2.4a55.49 55.49 0 0 0-35.21 15.42c-.92.9-1.8 1.83-2.65 2.79A31.1 31.1 0 0 0 166 76a36.1 36.1 0 0 0-14.06-8.59 53.1 53.1 0 0 0-17.07-2.53H98.53A17.6 17.6 0 0 0 81 82.5v70.75a17.64 17.64 0 0 0 .14 2.09 50.72 50.72 0 0 0-10.86 2.23 42.33 42.33 0 0 0-14.16 7.76 36.15 36.15 0 0 0-9.74 12.82A38 38 0 0 0 43 193.93v.22a32.57 32.57 0 0 0 8.39 22.94l-6.51 7.79a17.59 17.59 0 0 0 2.81 25.24 62.61 62.61 0 0 0 17.72 9.48 74.7 74.7 0 0 0 24.43 4 59.36 59.36 0 0 0 16.9-2.3 43 43 0 0 0 14.63-7.46 37.12 37.12 0 0 0 7.11-7.46c.52.56 1.06 1.11 1.61 1.65a55.2 55.2 0 0 0 17.7 11.57 59.16 59.16 0 0 0 38.81 1.78q2.43-.74 4.77-1.68a17.55 17.55 0 0 0 10.44 3.44 17.6 17.6 0 0 0 13.07-5.82l5.78-6.43.4.4A43.12 43.12 0 0 0 237.8 261a68.53 68.53 0 0 0 38.52 0 44.94 44.94 0 0 0 11.8-5.66 17.53 17.53 0 0 0 14 7H317a17.5 17.5 0 0 0 16.32-11.05l1.14-2.86h11.13l1.21 3a17.51 17.51 0 0 0 16.27 10.94h15.37a17.56 17.56 0 0 0 7.72-1.79 17.44 17.44 0 0 0 7.67 1.79h26a69.86 69.86 0 0 0 23.44-3.76 54.22 54.22 0 0 0 18.76-11.07 49.17 49.17 0 0 0 12.11-17.3 54.19 54.19 0 0 0 4.09-21v-.22a54 54 0 0 0-3.95-21.02zm-344.77-16.61c-.11-.19.55-.57.55-.57zM257 213.66l.45.56c.04.88-.45.63-.45-.56z"/><path d="M156 117.08a1.76 1.76 0 0 1-.89-1.39 1.59 1.59 0 0 1 .59-1.4 23.24 23.24 0 0 0 3.43-3.44c2.51-3.11 3.79-7.18 3.79-12.12v-.22a19.88 19.88 0 0 0-1.48-7.85 19.17 19.17 0 0 0-4.06-6A24.05 24.05 0 0 0 148 79a41.11 41.11 0 0 0-13.15-1.88H98.53a5.42 5.42 0 0 0-5.41 5.41v70.75a5.41 5.41 0 0 0 5.41 5.41h36.6c9.7 0 17.39-2 22.84-6 5.63-4.13 8.49-9.95 8.49-17.29v-.22c0-5.73-1.58-10.29-4.7-13.57a25.1 25.1 0 0 0-5.76-4.53zm-38.13 11.58a1.72 1.72 0 0 1 1.71-1.71h12.9c3.21 0 5.54.51 6.91 1.53a4.2 4.2 0 0 1 1.81 3.63v.22a4.19 4.19 0 0 1-1.87 3.76c-1.46 1-3.69 1.51-6.63 1.51h-13.15a1.72 1.72 0 0 1-1.71-1.71zM138 103.19a3.84 3.84 0 0 1-1.76 3.56c-1.43.91-3.66 1.38-6.63 1.38h-10a1.72 1.72 0 0 1-1.71-1.71v-6.57a1.72 1.72 0 0 1 1.71-1.71H130c2.86 0 5 .47 6.28 1.39A3.87 3.87 0 0 1 138 103zm205.93-26.1h-17.26a5.38 5.38 0 0 0-4.61 2.57l-14.5 23.53a1.71 1.71 0 0 1-2.92 0l-14.5-23.54a5.37 5.37 0 0 0-4.6-2.57h-17.26a5.42 5.42 0 0 0-5.41 5.41v70.75a5.41 5.41 0 0 0 5.41 5.41h14.13a5.41 5.41 0 0 0 5.41-5.41v-29a1.71 1.71 0 0 1 3.15-.94l13.75 21.07h2.45L321 123.14a1.71 1.71 0 0 1 3.15.94v29.17a5.41 5.41 0 0 0 5.41 5.41h14.35a5.41 5.41 0 0 0 5.41-5.41V82.5a5.42 5.42 0 0 0-5.39-5.41zM427 121.55a25.1 25.1 0 0 0-5.79-4.47 1.76 1.76 0 0 1-.89-1.39 1.59 1.59 0 0 1 .59-1.4 23.23 23.23 0 0 0 3.43-3.44c2.51-3.11 3.79-7.18 3.79-12.12v-.22a19.88 19.88 0 0 0-1.48-7.85 19.17 19.17 0 0 0-4.06-6 24.05 24.05 0 0 0-9.41-5.66A41.11 41.11 0 0 0 400 77.09h-36.27a5.42 5.42 0 0 0-5.41 5.41v70.75a5.41 5.41 0 0 0 5.41 5.41h36.6c9.7 0 17.39-2 22.84-6 5.63-4.13 8.49-9.95 8.49-17.29v-.22c0-5.76-1.58-10.33-4.66-13.6zm-44 7.12a1.72 1.72 0 0 1 1.71-1.71h12.9c3.21 0 5.54.51 6.91 1.53a4.2 4.2 0 0 1 1.81 3.63v.22a4.19 4.19 0 0 1-1.87 3.76c-1.46 1-3.69 1.51-6.63 1.51h-13.07a1.72 1.72 0 0 1-1.71-1.71zm20.11-25.48a3.84 3.84 0 0 1-1.76 3.56c-1.43.91-3.66 1.38-6.63 1.38h-10a1.72 1.72 0 0 1-1.71-1.71v-6.57a1.72 1.72 0 0 1 1.71-1.71h10.46c2.86 0 5 .47 6.28 1.39a3.87 3.87 0 0 1 1.67 3.44zM114.64 206.46a38.17 38.17 0 0 0-9.65-5A97.55 97.55 0 0 0 92.7 198c-2.61-.58-4.78-1.14-6.46-1.68a21.53 21.53 0 0 1-3.78-1.52 3.75 3.75 0 0 1-1.46-1.14 2.54 2.54 0 0 1-.34-1.36v-.22a2.5 2.5 0 0 1 1.2-2.07 8.23 8.23 0 0 1 4.74-1.08 31.4 31.4 0 0 1 10.24 1.84 40.6 40.6 0 0 1 7.86 3.75 5.39 5.39 0 0 0 7.2-1.52l6.81-9.64a5.4 5.4 0 0 0 .91-4.09 5.27 5.27 0 0 0-2.21-3.44 47.26 47.26 0 0 0-11.82-5.89 58.14 58.14 0 0 0-18.44-2.73A42.13 42.13 0 0 0 74 169.13a30.24 30.24 0 0 0-10.12 5.51 24.09 24.09 0 0 0-6.5 8.53 25.9 25.9 0 0 0-2.22 10.76v.22a20.8 20.8 0 0 0 9.34 18.35 37.37 37.37 0 0 0 9.77 4.68c3.6 1.16 7.54 2.24 11.74 3.21 2.6.58 4.73 1.14 6.32 1.67a19.57 19.57 0 0 1 3.67 1.55 3.89 3.89 0 0 1 1.41 1.18 2.33 2.33 0 0 1 .3 1.23v.22a2.56 2.56 0 0 1-1.39 2.37 11.23 11.23 0 0 1-5.66 1.12 37.16 37.16 0 0 1-21.58-7.05 5.36 5.36 0 0 0-7.23.92l-7.59 9.08a5.42 5.42 0 0 0 .87 7.78 50.46 50.46 0 0 0 14.28 7.63 62.56 62.56 0 0 0 20.46 3.35 47.24 47.24 0 0 0 13.43-1.8 31 31 0 0 0 10.52-5.32 24.83 24.83 0 0 0 6.91-8.57 25.91 25.91 0 0 0 2.47-11.47v-.22a22.41 22.41 0 0 0-2.2-10.22 20.82 20.82 0 0 0-6.36-7.38zm86.63-27.15a43.16 43.16 0 0 0-13.83-9 47.34 47.34 0 0 0-34.78 0 44 44 0 0 0-13.93 9.06 41.54 41.54 0 0 0-12.58 30v.22a41.15 41.15 0 0 0 3.33 16.41 41.79 41.79 0 0 0 9.13 13.38 43.1 43.1 0 0 0 13.83 9 47 47 0 0 0 30.61 1.39 46.65 46.65 0 0 0 9.22-3.92 1.71 1.71 0 0 1 2 .21l4 3.55a5.42 5.42 0 0 0 7.63-.41l6.07-6.75a5.41 5.41 0 0 0-.53-7.74l-2.84-2.41a1.74 1.74 0 0 1-.34-2.21 40.38 40.38 0 0 0 3.66-8.29 41.59 41.59 0 0 0 1.86-12.46v-.22a41.15 41.15 0 0 0-3.32-16.42 41.86 41.86 0 0 0-9.19-13.39zm-27 29.91l-6.1 6.84a5.41 5.41 0 0 0 .52 7.71l2.41 2.06a1.7 1.7 0 0 1 .49 1.93 1.63 1.63 0 0 1-1.59 1.08 17.25 17.25 0 0 1-7.37-1.55 17.89 17.89 0 0 1-5.72-4.19 19.17 19.17 0 0 1-3.72-6.14 20.86 20.86 0 0 1-1.33-7.41v-.22a21.27 21.27 0 0 1 1.28-7.37 18.54 18.54 0 0 1 3.64-6.07 18 18 0 0 1 5.65-4.19 16.75 16.75 0 0 1 7.27-1.54 17.51 17.51 0 0 1 7.4 1.55 18 18 0 0 1 5.8 4.24 19.32 19.32 0 0 1 3.76 6.2 21 21 0 0 1 1.33 7.41v.88a1.72 1.72 0 0 1-2.87 1.24l-3.12-2.87a5.41 5.41 0 0 0-7.67.41zM290 168.54h-14.9a5.41 5.41 0 0 0-5.41 5.41v40.27c0 5-1.12 8.6-3.33 10.82s-5.2 3.35-9.06 3.35-6.81-1.14-9-3.49-3.35-6.12-3.35-11.24V174a5.41 5.41 0 0 0-5.41-5.41h-14.9a5.41 5.41 0 0 0-5.41 5.41v40.16a47.49 47.49 0 0 0 2.62 16.5 30.68 30.68 0 0 0 7.64 11.83 31.06 31.06 0 0 0 12.05 6.92 51.76 51.76 0 0 0 15.58 2.2 52.29 52.29 0 0 0 15.63-2.2 30.08 30.08 0 0 0 20-18.85 47.7 47.7 0 0 0 2.74-17V174a5.41 5.41 0 0 0-5.49-5.46zm63.33 2.75a5.4 5.4 0 0 0-5-3.3h-16.06a5.4 5.4 0 0 0-5 3.3l-30.14 71.3a5.41 5.41 0 0 0 5 7.52H317a5.38 5.38 0 0 0 5-3.4l3.77-9.43a1.71 1.71 0 0 1 1.59-1.08h25.23a1.71 1.71 0 0 1 1.59 1.07l3.87 9.47a5.39 5.39 0 0 0 5 3.37h15.37a5.41 5.41 0 0 0 5-7.51zm85.94 75.76a42.15 42.15 0 0 0 14.59-8.56 37.08 37.08 0 0 0 9.13-13 42.09 42.09 0 0 0 3.15-16.34v-.22a41.94 41.94 0 0 0-3.14-16.28 36 36 0 0 0-9-12.83 41.36 41.36 0 0 0-14.43-8.33 58.78 58.78 0 0 0-19.24-2.94h-26.45a5.41 5.41 0 0 0-5.41 5.41v70.74a5.41 5.41 0 0 0 5.41 5.41m41.26-27.5c-3.58 3.1-8.43 4.67-14.42 4.67h-5.26a1.72 1.72 0 0 1-1.71-1.71v-32.48a1.72 1.72 0 0 1 1.71-1.71h5.26c6 0 10.83 1.59 14.41 4.72s5.29 7.48 5.29 13.13v.22c0 5.7-1.78 10.13-5.28 13.16zM252.28 101.6a41 41 0 0 0-8.39-12.54l3-5.73a6.71 6.71 0 0 0-2.93-9l-4.39-2.24a20.62 20.62 0 0 1 6.92-8.26 3.23 3.23 0 0 0-3.73-5.28 27.05 27.05 0 0 0-8.95 10.61l-4.88-2.49a6.71 6.71 0 0 0-9 2.93l-3.6 7a45.91 45.91 0 0 0-3.48-.13 44.4 44.4 0 0 0-17 3.24 43 43 0 0 0-13.64 8.87 40.62 40.62 0 0 0-12.29 29.31v.22a40.23 40.23 0 0 0 3.08 16.04 40.88 40.88 0 0 0 9 13.08 42.19 42.19 0 0 0 13.51 8.77 46.42 46.42 0 0 0 34.08 0 43 43 0 0 0 13.64-8.87 40.62 40.62 0 0 0 12.29-29.31v-.22a40.23 40.23 0 0 0-3.24-16z"/><path class="cls-3" d="M181.46 122.44a2.77 2.77 0 0 1-2.77-2.77 34.16 34.16 0 0 1 34.12-34.12 2.77 2.77 0 1 1 0 5.54 28.61 28.61 0 0 0-28.58 28.58 2.77 2.77 0 0 1-2.77 2.77z"/><path class="cls-4" d="M258.89 42.41l-2.2 7.92a1.36 1.36 0 0 0 .56 1.49l6.85 4.54a1.36 1.36 0 0 1-.69 2.49l-8.21.36a1.36 1.36 0 0 0-1.25 1l-2.2 7.92a1.36 1.36 0 0 1-2.58.11l-2.88-7.7a1.36 1.36 0 0 0-1.33-.88l-8.21.36a1.36 1.36 0 0 1-.9-2.42l6.43-5.11a1.36 1.36 0 0 0 .43-1.54l-2.88-7.7a1.36 1.36 0 0 1 2-1.61l6.85 4.54a1.36 1.36 0 0 0 1.59-.07l6.47-5.11a1.36 1.36 0 0 1 2.15 1.41z"/><path class="cls-3" d="M344.3 212a4.11 4.11 0 0 1-8.21 0c0-4 4.11-10 4.11-10s4.1 6 4.1 10z"/><path class="cls-2" d="M37.41 277.69l6.22 19.15a2.87 2.87 0 0 0 2.73 2H66.5a2.87 2.87 0 0 1 1.68 5.16l-16.29 11.85a2.87 2.87 0 0 0-1 3.21l6.22 19.15a2.87 2.87 0 0 1-4.41 3.21l-16.33-11.85a2.87 2.87 0 0 0-3.37 0l-16.29 11.84a2.87 2.87 0 0 1-4.41-3.21l6.22-19.15a2.87 2.87 0 0 0-1-3.21L1.19 304a2.87 2.87 0 0 1 1.69-5.19H23a2.87 2.87 0 0 0 2.73-2L32 277.69a2.87 2.87 0 0 1 5.41 0zM89.84 1.28l4 12.36a1.85 1.85 0 0 0 1.76 1.28h13a1.85 1.85 0 0 1 1.09 3.35l-10.5 7.64a1.85 1.85 0 0 0-.68 2.09l4 12.36a1.85 1.85 0 0 1-2.85 2.07l-10.49-7.66a1.85 1.85 0 0 0-2.18 0l-10.51 7.64a1.85 1.85 0 0 1-2.85-2.07l4-12.36a1.85 1.85 0 0 0-.63-2.07l-10.54-7.64a1.85 1.85 0 0 1 1.09-3.35h13a1.85 1.85 0 0 0 1.76-1.28l4-12.36a1.85 1.85 0 0 1 3.53 0zm377.45 40.49l2.62 8.07a1.21 1.21 0 0 0 1.15.83h8.48a1.21 1.21 0 0 1 .71 2.19l-6.86 5a1.21 1.21 0 0 0-.39 1.34l2.62 8.07a1.21 1.21 0 0 1-1.86 1.35l-6.86-5a1.21 1.21 0 0 0-1.42 0l-6.86 5a1.21 1.21 0 0 1-1.86-1.35l2.62-8.07a1.21 1.21 0 0 0-.44-1.35l-6.86-5a1.21 1.21 0 0 1 .71-2.19h8.48a1.21 1.21 0 0 0 1.15-.83l2.58-8.06a1.21 1.21 0 0 1 2.29 0z"/></g></svg>