<svg id="Layer_1" xmlns="http://www.w3.org/2000/svg" viewBox="0 0 480.8 342"><style>.st0{opacity:.5;fill:#e2810c;enable-background:new}.st1{fill:#f7f7f7}.st2{fill:#fff}.st3{fill:#ff2615}</style><title>logo</title><g id="Mixed_Grit_Halftone_2"><path class="st0" d="M136.7 187.1c-.1-.2.5-.5.5-.5l-.5.5zM257.2 227l.4.5c0 .8-.4.6-.4-.5z"/><path class="st1" d="M474.3 188c-2.7-6.5-6.8-12.4-12.1-17.1-5.4-4.8-11.8-8.5-18.6-10.9-2.6-.9-5.3-1.6-8.1-2.2 5.5-6.2 8.5-14.2 8.3-22.5v-.2c0-10.3-3.7-17-7.2-21 2.4-4.8 3.7-10 3.6-15.4v-.2c0-4.3-.8-8.6-2.5-12.6-1.6-3.7-3.8-7-6.6-9.9-4-3.9-8.8-6.8-14.1-8.6-5.5-1.8-11.3-2.6-17.1-2.5h-36.3c-3.5 0-7 1.1-9.9 3.1-2.9-2-6.4-3.1-9.9-3.1h-17.3c-6.1 0-11.8 3.1-15 8.4l-5.6 9.1-5.6-9.1c-3.2-5.2-8.9-8.4-15-8.3h-13.9c4.1-4.6 3.7-11.6-.8-15.7-.4-.4-.8-.7-1.3-1l-1.8-1.2.6-2c.9-3.3.3-6.9-1.9-9.7-3.7-4.9-10.6-5.9-15.5-2.2-.1.1-.2.1-.2.2l-1.7 1.3-1.8-1.2c-5.1-3.4-12-2-15.4 3.1-2 3-2.4 6.7-1.1 10l.7 2-1.6 1.3c-1.3 1-2.3 2.3-3.1 3.8h-.9c-7.1-.1-13.6 3.9-16.8 10.2l-.2.4c-13.2.8-25.7 6.2-35.2 15.4-.9.9-1.8 1.8-2.6 2.8-1.3-2.4-3-4.6-4.9-6.6-4-3.9-8.8-6.8-14.1-8.6-5.5-1.8-11.3-2.6-17.1-2.5H98.5c-9.7 0-17.5 7.9-17.5 17.6v70.8c0 .7.1 1.4.1 2.1-3.7.3-7.3 1.1-10.9 2.2-5.2 1.7-10 4.3-14.2 7.8a35.7 35.7 0 0 0-9.7 12.8c-2.2 5-3.4 10.3-3.4 15.8v.2c-.3 8.4 2.7 16.7 8.4 22.9l-6.5 7.8c-6.2 7.5-5.2 18.5 2.2 24.8.2.2.4.3.6.5 5.4 4.1 11.3 7.3 17.7 9.5 7.9 2.7 16.1 4 24.4 4 5.7.1 11.4-.7 16.9-2.3 5.3-1.5 10.3-4.1 14.6-7.5 2.7-2.1 5.1-4.7 7.1-7.5.5.6 1.1 1.1 1.6 1.6 5.1 5 11.1 8.9 17.7 11.6 12.4 4.9 26 5.6 38.8 1.8 1.6-.5 3.2-1.1 4.8-1.7 3 2.2 6.7 3.4 10.4 3.4 5 0 9.7-2.1 13.1-5.8l5.8-6.4.4.4c4.8 4.5 10.5 7.8 16.7 9.7 12.6 3.7 25.9 3.7 38.5 0 4.2-1.3 8.2-3.2 11.8-5.7 3.3 4.4 8.5 7 14 7H317c7.2 0 13.7-4.4 16.3-11.1l1.1-2.9h11.1l1.2 3c2.7 6.6 9.1 11 16.3 10.9h15.4c2.7 0 5.3-.6 7.7-1.8 2.4 1.2 5 1.8 7.7 1.8h26c8 .1 15.9-1.2 23.4-3.8 6.9-2.4 13.3-6.1 18.8-11.1 5.2-4.8 9.4-10.7 12.1-17.3 2.7-6.7 4.1-13.8 4.1-21v.1c.1-7.2-1.2-14.3-3.9-21zm-344.8-16.6c-.1-.2.6-.6.6-.6l-.6.6zM257 213.7l.5.6c0 .8-.5.5-.5-.6z"/><path d="M156 117.1c-.5-.3-.8-.8-.9-1.4-.1-.5.2-1.1.6-1.4 1.3-1 2.4-2.2 3.4-3.4 2.5-3.1 3.8-7.2 3.8-12.1v-.2c0-2.7-.5-5.4-1.5-7.8-1-2.2-2.3-4.3-4.1-6-2.6-2.6-5.9-4.5-9.4-5.7-4.3-1.3-8.7-2-13.1-1.9H98.5c-3 0-5.4 2.4-5.4 5.4v70.8c0 3 2.4 5.4 5.4 5.4h36.6c9.7 0 17.4-2 22.8-6 5.6-4.1 8.5-9.9 8.5-17.3v-.2c0-5.7-1.6-10.3-4.7-13.6-1.6-1.9-3.6-3.4-5.7-4.6zm-38.1 11.6c0-.9.8-1.7 1.7-1.7h12.9c3.2 0 5.5.5 6.9 1.5 1.2.8 1.9 2.2 1.8 3.6v.2c.1 1.5-.6 2.9-1.9 3.8-1.5 1-3.7 1.5-6.6 1.5h-13.1c-.9 0-1.7-.8-1.7-1.7v-7.2zm20.1-25.5c.1 1.4-.6 2.8-1.8 3.6-1.4.9-3.7 1.4-6.6 1.4h-10c-.9 0-1.7-.8-1.7-1.7v-6.6c0-.9.8-1.7 1.7-1.7H130c2.9 0 5 .5 6.3 1.4 1.2.8 1.8 2.1 1.7 3.5v.1zm205.9-26.1h-17.3c-1.9 0-3.6 1-4.6 2.6l-14.5 23.5c-.5.8-1.5 1.1-2.4.6-.2-.1-.4-.3-.6-.6L290 79.7c-1-1.6-2.7-2.6-4.6-2.6h-17.3c-3 0-5.4 2.4-5.4 5.4v70.8c0 3 2.4 5.4 5.4 5.4h14.1c3 0 5.4-2.4 5.4-5.4v-29c0-.9.7-1.7 1.7-1.7.6 0 1.1.3 1.5.8l13.8 21.1h2.5l13.8-21.2c.5-.8 1.6-1 2.4-.5.5.3.8.9.8 1.5v29.2c0 3 2.4 5.4 5.4 5.4h14.4c3 0 5.4-2.4 5.4-5.4v-71c0-3-2.4-5.4-5.4-5.4zm83.1 44.4c-1.7-1.8-3.7-3.3-5.8-4.5-.5-.3-.8-.8-.9-1.4-.1-.5.2-1.1.6-1.4 1.3-1 2.4-2.2 3.4-3.4 2.5-3.1 3.8-7.2 3.8-12.1v-.2c0-2.7-.5-5.4-1.5-7.8-1-2.2-2.3-4.3-4.1-6-2.7-2.6-5.9-4.5-9.4-5.7-4.3-1.3-8.7-2-13.2-1.9h-36.3c-3 0-5.4 2.4-5.4 5.4v70.8c0 3 2.4 5.4 5.4 5.4h36.6c9.7 0 17.4-2 22.8-6 5.6-4.1 8.5-9.9 8.5-17.3v-.2c.2-5.8-1.4-10.4-4.5-13.7zm-44 7.2c0-.9.8-1.7 1.7-1.7h12.9c3.2 0 5.5.5 6.9 1.5 1.2.8 1.9 2.2 1.8 3.6v.2c.1 1.5-.6 2.9-1.9 3.8-1.5 1-3.7 1.5-6.6 1.5h-13.1c-.9 0-1.7-.8-1.7-1.7v-7.2zm20.1-25.5c.1 1.4-.6 2.8-1.8 3.6-1.4.9-3.7 1.4-6.6 1.4h-10c-.9 0-1.7-.8-1.7-1.7v-6.6c0-.9.8-1.7 1.7-1.7h10.5c2.9 0 5 .5 6.3 1.4 1.1.8 1.8 2.1 1.7 3.4l-.1.2zM114.6 206.5c-3-2.1-6.2-3.8-9.7-5-4-1.4-8.1-2.6-12.3-3.5-2.6-.6-4.8-1.1-6.5-1.7-1.3-.4-2.6-.9-3.8-1.5-.6-.3-1.1-.6-1.5-1.1-.2-.4-.4-.9-.3-1.4v-.2c0-.8.5-1.6 1.2-2.1 1.4-.8 3.1-1.2 4.7-1.1 3.5 0 7 .7 10.2 1.8 2.7 1 5.4 2.2 7.9 3.8 2.4 1.5 5.6.8 7.2-1.5l6.8-9.6c.8-1.2 1.2-2.7.9-4.1-.2-1.4-1-2.6-2.2-3.4-3.6-2.5-7.6-4.5-11.8-5.9-6-1.9-12.2-2.8-18.4-2.7-4.5-.1-8.9.6-13.1 1.9-3.7 1.2-7.1 3-10.1 5.5-2.8 2.3-5 5.2-6.5 8.5-1.5 3.4-2.3 7.1-2.2 10.8v.2c-.3 7.3 3.2 14.3 9.3 18.4 3 2 6.3 3.6 9.8 4.7 3.6 1.2 7.5 2.2 11.7 3.2 2.6.6 4.7 1.1 6.3 1.7 1.3.4 2.5.9 3.7 1.6.6.3 1 .7 1.4 1.2.2.4.3.8.3 1.2v.2c0 1-.5 1.9-1.4 2.4-1.8.9-3.7 1.2-5.7 1.1-7.8 0-15.3-2.5-21.6-7.1a5.4 5.4 0 0 0-7.2.9l-7.6 9.1c-1.9 2.3-1.6 5.7.7 7.6.1 0 .1.1.2.1 4.3 3.3 9.1 5.9 14.3 7.6 6.6 2.2 13.5 3.4 20.5 3.4 4.5 0 9.1-.6 13.4-1.8 3.8-1.1 7.4-2.9 10.5-5.3 2.9-2.3 5.3-5.2 6.9-8.6 1.7-3.6 2.5-7.5 2.5-11.5v-.2c.1-3.5-.7-7-2.2-10.2-1.4-3-3.6-5.5-6.3-7.4zm86.7-27.2c-4-3.9-8.7-6.9-13.8-9-11.2-4.4-23.6-4.4-34.8 0-5.2 2.1-9.9 5.2-13.9 9.1-8.1 7.9-12.6 18.7-12.6 30v.2c0 5.6 1.1 11.2 3.3 16.4 2.1 5 5.2 9.6 9.1 13.4 4 3.9 8.7 6.9 13.8 9 9.8 3.9 20.5 4.4 30.6 1.4 3.2-1 6.3-2.3 9.2-3.9.6-.4 1.4-.3 2 .2l4 3.6c2.2 2 5.6 1.8 7.6-.4l6.1-6.8c2-2.2 1.8-5.6-.4-7.6l-.1-.1-2.8-2.4c-.6-.6-.8-1.5-.3-2.2 1.5-2.6 2.8-5.4 3.7-8.3 1.2-4 1.9-8.2 1.9-12.5v-.2c0-5.6-1.1-11.2-3.3-16.4-2.3-5.1-5.4-9.7-9.3-13.5zm-27 29.9l-6.1 6.8c-2 2.2-1.8 5.7.4 7.6 0 0 .1 0 .1.1l2.4 2.1c.6.5.8 1.2.5 1.9-.2.7-.9 1.1-1.6 1.1-2.5 0-5.1-.5-7.4-1.6-2.2-1-4.1-2.4-5.7-4.2-1.6-1.8-2.9-3.9-3.7-6.1-.9-2.4-1.3-4.9-1.3-7.4v-.2c0-2.5.4-5 1.3-7.4.8-2.2 2-4.3 3.6-6.1 1.6-1.8 3.5-3.2 5.6-4.2 2.3-1.1 4.8-1.6 7.3-1.5 2.6 0 5.1.5 7.4 1.6 2.2 1 4.2 2.5 5.8 4.2 1.6 1.8 2.9 3.9 3.8 6.2.9 2.4 1.3 4.9 1.3 7.4v.9c0 .9-.8 1.7-1.8 1.7-.4 0-.8-.2-1.1-.4l-3.1-2.9c-2.2-2-5.6-1.8-7.7.4zM290 168.5h-14.9c-3 0-5.4 2.4-5.4 5.4v40.3c0 5-1.1 8.6-3.3 10.8s-5.2 3.4-9.1 3.4-6.8-1.1-9-3.5-3.4-6.1-3.4-11.2V174c0-3-2.4-5.4-5.4-5.4h-14.9c-3 0-5.4 2.4-5.4 5.4v40.2c-.1 5.6.8 11.2 2.6 16.5 1.6 4.5 4.2 8.5 7.6 11.8 3.4 3.2 7.6 5.6 12.1 6.9 5.1 1.5 10.3 2.3 15.6 2.2 5.3.1 10.6-.7 15.6-2.2 9.3-2.7 16.8-9.7 20-18.9 1.9-5.5 2.9-11.2 2.7-17V174c0-3-2.4-5.4-5.4-5.5.1 0 0 0 0 0zm63.3 2.8c-.8-2-2.8-3.3-5-3.3h-16.1c-2.2 0-4.2 1.3-5 3.3l-30.1 71.3c-1.2 2.8.1 5.9 2.9 7.1.7.3 1.4.4 2.1.4H317c2.2 0 4.2-1.3 5-3.4l3.8-9.4c.3-.7.9-1.1 1.6-1.1h25.2c.7 0 1.3.4 1.6 1.1l3.9 9.5c.8 2 2.8 3.4 5 3.4h15.4c3 0 5.4-2.4 5.4-5.4 0-.7-.1-1.4-.4-2.1l-30.2-71.4zm67 78.8c6.4-.4 12.8-1.2 19-3 5.4-1.8 10.4-4.8 14.6-8.6 3.9-3.6 7.1-8.1 9.1-13 2.1-5.2 3.2-10.7 3.1-16.3v-.2c0-5.6-1-11.1-3.1-16.3-2-4.9-5.1-9.3-9-12.8-4.2-3.7-9.1-6.6-14.4-8.3-6.2-2-12.7-3-19.2-2.9h-26.5c-3 0-5.4 2.4-5.4 5.4V241c0 3.2-.4 7 3 8.8 1.8.9 11.3.7 13.9.7 4.9-.1 9.9-.1 14.9-.4zm14.8-27.5c-3.6 3.1-8.4 4.7-14.4 4.7h-5.3c-.9 0-1.7-.8-1.7-1.7v-32.5c0-.9.8-1.7 1.7-1.7h5.3c6 0 10.8 1.6 14.4 4.7s5.3 7.5 5.3 13.1v.2c0 5.7-1.8 10.2-5.3 13.2zm-182.8-121c-2-4.7-4.8-8.9-8.4-12.5l3-5.7c1.7-3.3.4-7.3-2.9-9l-4.4-2.2c1.5-3.3 3.9-6.2 6.9-8.3 1.5-1 1.8-3 .8-4.5s-3-1.8-4.5-.8c-3.9 2.7-6.9 6.4-8.9 10.6l-4.9-2.5c-3.3-1.7-7.3-.4-9 2.9l-3.6 7c-1.2-.1-2.3-.1-3.5-.1-5.8 0-11.6 1.1-17 3.2-5.1 2.1-9.7 5.1-13.6 8.9-7.9 7.7-12.3 18.3-12.3 29.3v.2c-.1 5.5 1 11 3.1 16 2.1 4.9 5.2 9.4 9 13.1 3.9 3.8 8.5 6.7 13.5 8.8 10.9 4.3 23.1 4.3 34.1 0 5.1-2.1 9.7-5.1 13.6-8.9 7.9-7.7 12.3-18.3 12.3-29.3v-.2c-.1-5.5-1.2-10.9-3.3-16z"/><path class="st2" d="M181.5 122.4c-1.5 0-2.8-1.2-2.8-2.8 0-18.8 15.3-34.1 34.1-34.1 1.5 0 2.8 1.2 2.8 2.8 0 1.5-1.2 2.8-2.8 2.8-15.8 0-28.6 12.8-28.6 28.6 0 1.5-1.2 2.7-2.7 2.7z"/><path class="st3" d="M258.9 42.4l-2.2 7.9c-.2.6.1 1.2.6 1.5l6.9 4.5c.6.4.8 1.3.4 1.9-.2.4-.6.6-1.1.6l-8.2.4c-.6 0-1.1.4-1.2 1l-2.2 7.9c-.2.7-1 1.1-1.7.9-.4-.1-.7-.4-.9-.8l-2.9-7.7c-.2-.5-.7-.9-1.3-.9l-8.2.4c-.8 0-1.4-.6-1.4-1.3 0-.4.2-.8.5-1.1l6.4-5.1c.5-.4.6-1 .4-1.5l-2.9-7.7c-.3-.7.1-1.5.8-1.7.4-.1.8-.1 1.2.1l6.9 4.5c.5.3 1.1.3 1.6-.1l6.5-5.1c.6-.5 1.4-.3 1.9.2.1.4.2.8.1 1.2z"/><path class="st2" d="M344.3 212c-.1 2.3-2 4-4.3 3.9-2.1-.1-3.8-1.8-3.9-3.9 0-4 4.1-10 4.1-10s4.1 6 4.1 10z"/><path class="st1" d="M37.4 277.7l6.2 19.1c.4 1.2 1.5 2 2.7 2h20.1c1.6 0 2.8 1.3 2.8 2.9 0 .9-.4 1.7-1.1 2.2l-16.3 11.9c-1 .7-1.4 2-1 3.2l6.2 19.1c.5 1.5-.3 3.1-1.8 3.6-.9.3-1.8.1-2.6-.4l-16.3-11.8c-1-.7-2.4-.7-3.4 0l-16.3 11.8c-1.3.9-3.1.6-4-.6-.5-.7-.7-1.7-.4-2.6l6.2-19.1c.4-1.2 0-2.5-1-3.2L1.2 304c-1.3-.9-1.6-2.7-.6-4 .5-.7 1.4-1.2 2.3-1.2H23c1.2 0 2.4-.8 2.7-2l6.3-19.1c.5-1.5 2.2-2.3 3.7-1.7.8.2 1.4.9 1.7 1.7zM89.8 1.3l4 12.4c.2.8 1 1.3 1.8 1.3h13c1 0 1.9.8 1.9 1.8 0 .6-.3 1.2-.8 1.5l-10.5 7.6c-.7.5-.9 1.3-.7 2.1l4 12.4c.3 1-.2 2-1.2 2.3-.6.2-1.2.1-1.7-.3l-10.5-7.7c-.6-.5-1.5-.5-2.2 0l-10.5 7.6c-.8.6-2 .4-2.6-.4-.4-.5-.5-1.1-.3-1.7l4-12.4c.3-.8 0-1.6-.6-2.1l-10.5-7.6c-.8-.6-1-1.8-.4-2.6.3-.5.9-.8 1.5-.8h13c.8 0 1.5-.5 1.8-1.3l4-12.4c.3-1 1.3-1.5 2.3-1.2.6.5 1.1.9 1.2 1.5zm377.5 40.5l2.6 8.1c.2.5.6.8 1.1.8h8.5c.7 0 1.2.5 1.2 1.2 0 .4-.2.8-.5 1l-6.9 5c-.4.3-.6.9-.4 1.3l2.6 8.1c.2.6-.1 1.3-.8 1.5-.4.1-.8.1-1.1-.2l-6.9-5c-.4-.3-1-.3-1.4 0l-6.9 5c-.5.4-1.3.3-1.7-.3-.2-.3-.3-.7-.2-1.1l2.6-8.1c.2-.5 0-1-.4-1.3l-6.9-5c-.5-.4-.7-1.1-.3-1.7.2-.3.6-.5 1-.5h8.5c.5 0 1-.3 1.1-.8l2.6-8.1c.2-.6.9-1 1.5-.8.7.2 1 .5 1.1.9z"/></g></svg>