<svg xmlns="http://www.w3.org/2000/svg" viewBox="0 0 65.57 50.44"><defs><style>.cls-1{fill:#f7f7f7;}</style></defs><title>Pass The Bomb Assets</title><g id="Mixed_Grit_Halftone_2" data-name="Mixed Grit Halftone 2"><path class="cls-1" d="M54.72,50.44a3.92,3.92,0,0,1-3.17-6.23,32.3,32.3,0,0,0,0-38A3.92,3.92,0,1,1,57.9,1.61a40.14,40.14,0,0,1,0,47.22A3.92,3.92,0,0,1,54.72,50.44Z"/><path class="cls-1" d="M40.93,40.2a3.92,3.92,0,0,1-3.11-6.3,14.32,14.32,0,0,0,0-17.36A3.92,3.92,0,1,1,44,11.78a22.16,22.16,0,0,1,0,26.88A3.91,3.91,0,0,1,40.93,40.2Z"/><path class="cls-1" d="M10.52,16.5H1.2A1.2,1.2,0,0,0,0,17.69V32.63a1.2,1.2,0,0,0,1.2,1.2H11v.12l12,13.27a2.52,2.52,0,0,0,4.38-1.69V4.92a2.52,2.52,0,0,0-4.38-1.69L11.4,16.11A1.2,1.2,0,0,1,10.52,16.5Z"/></g></svg>