<?xml version="1.0" encoding="utf-8"?>
<!-- Generator: Adobe Illustrator 21.0.0, SVG Export Plug-In . SVG Version: 6.00 Build 0)  -->
<svg version="1.1" id="Layer_1" xmlns="http://www.w3.org/2000/svg" xmlns:xlink="http://www.w3.org/1999/xlink" x="0px" y="0px"
	 viewBox="0 0 65.6 50.4" style="enable-background:new 0 0 65.6 50.4;" xml:space="preserve">
<style type="text/css">
	.st0{fill:#F7F7F7;}
</style>
<title>Pass The Bomb Assets</title>
<g id="Mixed_Grit_Halftone_2">
	<path class="st0" d="M54.7,50.4c-2.2,0-3.9-1.8-3.9-3.9c0-0.8,0.3-1.6,0.8-2.3c8.2-11.3,8.2-26.7,0-38c-1.3-1.8-0.9-4.2,0.9-5.5
		c1.8-1.3,4.2-0.9,5.5,0.9c10.2,14.1,10.2,33.1,0,47.2C57.2,49.8,56,50.4,54.7,50.4z"/>
	<path class="st0" d="M40.9,40.2c-2.2,0-3.9-1.8-3.9-3.9c0-0.9,0.3-1.7,0.8-2.4c3.9-5.1,3.9-12.2,0-17.4C36.3,15,36.4,12.5,38,11
		c1.6-1.5,4.1-1.4,5.5,0.2c0.2,0.2,0.3,0.4,0.5,0.6c6.1,7.9,6.1,18.9,0,26.9C43.3,39.6,42.1,40.2,40.9,40.2z"/>
	<path class="st0" d="M10.5,16.5H1.2C0.5,16.5,0,17,0,17.7v14.9c0,0.7,0.5,1.2,1.2,1.2c0,0,0,0,0,0H11v0.1l12,13.3
		c0.9,1,2.5,1.1,3.6,0.2c0.5-0.5,0.8-1.1,0.8-1.8V4.9c0-1.4-1.1-2.5-2.5-2.5c-0.7,0-1.4,0.3-1.8,0.8L11.4,16.1
		C11.2,16.4,10.9,16.5,10.5,16.5z"/>
</g>
</svg>
