<svg xmlns="http://www.w3.org/2000/svg" viewBox="0 0 84.01 61.35"><defs><style>.cls-1{fill:#ffb510;}</style></defs><title>Pass The Bomb Assets</title><g id="Mixed_Grit_Halftone_2" data-name="Mixed Grit Halftone 2"><circle class="cls-1" cx="42" cy="49.4" r="4.14"/><path class="cls-1" d="M52.78,0H31.23A7.26,7.26,0,0,0,24,7.25V54.12a7.26,7.26,0,0,0,7.25,7.25H52.78A7.26,7.26,0,0,0,60,54.12V7.25A7.26,7.26,0,0,0,52.78,0Zm2.75,54.12a2.75,2.75,0,0,1-2.75,2.75H31.23a2.75,2.75,0,0,1-2.75-2.75V7.25A2.75,2.75,0,0,1,31.23,4.5H52.78a2.75,2.75,0,0,1,2.75,2.75Z"/><path class="cls-1" d="M76.26,47.78H74.92a23.28,23.28,0,0,0-5.13-39.9A2.25,2.25,0,1,0,68,12a18.78,18.78,0,0,1,2.75,33.16V42.31a2.25,2.25,0,0,0-4.5,0V50a2.25,2.25,0,0,0,2.25,2.25h7.72a2.25,2.25,0,0,0,0-4.5Z"/><path class="cls-1" d="M15.47,7.71H7.75a2.25,2.25,0,0,0,0,4.5H9.09a23.28,23.28,0,0,0,5.13,39.9A2.25,2.25,0,0,0,16,48,18.78,18.78,0,0,1,13.22,14.8v2.88a2.25,2.25,0,0,0,4.5,0V10A2.25,2.25,0,0,0,15.47,7.71Z"/></g></svg>