<svg xmlns="http://www.w3.org/2000/svg" viewBox="0 0 527.37 545.63"><defs><style>.cls-1{opacity:0.2;}.cls-2{fill:#020202;}.cls-3{opacity:0.4;}.cls-4{fill:#191819;}.cls-5{opacity:0.6;}.cls-6{fill:#232123;}.cls-7{fill:#302d33;}.cls-8{fill:#3c3a3f;}</style></defs><title>wheel</title><g id="Mixed_Grit_Halftone_2" data-name="Mixed Grit Halftone 2"><g class="cls-1"><path class="cls-2" d="M512.72,268.57H457.55a192.51,192.51,0,0,0-45.2-112.77l38.7-38.7a14.65,14.65,0,0,0,0-20.72h0a14.65,14.65,0,0,0-20.72,0l-38.48,38.48A192.52,192.52,0,0,0,279.61,87.25V32.91A14.65,14.65,0,0,0,265,18.26h0a14.65,14.65,0,0,0-14.65,14.65V87.06a192.52,192.52,0,0,0-112.86,46.14l-38.6-38.6a14.65,14.65,0,0,0-20.72,20.72l38.55,38.55A192.52,192.52,0,0,0,70,266H14.65A14.65,14.65,0,0,0,0,280.67H0a14.65,14.65,0,0,0,14.65,14.65H70A192.51,192.51,0,0,0,116,407.09L76.33,446.78a14.65,14.65,0,0,0,0,20.72h0a14.65,14.65,0,0,0,20.72,0l39.64-39.64a192.5,192.5,0,0,0,111.08,46.6V531a14.65,14.65,0,1,0,29.3,0V474.65a192.49,192.49,0,0,0,111.68-45.14l39.79,39.79a14.65,14.65,0,0,0,20.72,0h0a14.65,14.65,0,0,0,0-20.72L409.67,409A192.51,192.51,0,0,0,457.2,297.87h55.52a14.65,14.65,0,1,0,0-29.3Zm-80.73,0H376.8a113.3,113.3,0,0,0-22.1-55.11L394.18,174A168,168,0,0,1,432,268.57ZM373.71,153l-39.5,39.5a113.35,113.35,0,0,0-54.6-23.35V112.86A168.07,168.07,0,0,1,373.71,153Zm-123.4-40.38v56.2a113.3,113.3,0,0,0-55.11,22.1l-39.58-39.58A168,168,0,0,1,250.31,112.63ZM134.84,172l39.41,39.41A113.35,113.35,0,0,0,150.9,266H95.59A168,168,0,0,1,134.84,172ZM95.56,295.32h54.27c0,.91,0,1.82,0,2.73a113.36,113.36,0,0,0,16.39,58.89l-32,32A168,168,0,0,1,95.56,295.32ZM154.84,409.7l22-22,7.77-7.77a113.54,113.54,0,0,0,63.19,30.86v38A168,168,0,0,1,154.84,409.7Zm122.22,39.38V411.16a113.47,113.47,0,0,0,63.89-29.43l29.62,29.62A168,168,0,0,1,277.06,449.08Zm114.47-58.2-22.05-22.05-9.67-9.67a113.36,113.36,0,0,0,17.77-61.11c0-.06,0-.12,0-.18h54A168.08,168.08,0,0,1,391.53,390.88Z"/></g><g class="cls-3"><path class="cls-4" d="M187,247.76v29.3H152a125.81,125.81,0,0,1,1.42-14.65c1.3-9.49,2.23-14.65,2.23-14.65Z"/></g><g class="cls-3"><path class="cls-4" d="M176.8,328.05l20.72,20.72L176.8,369.48s-4.16.65-12.76-8c-7.4-7.4-8-12.76-8-12.76Z"/></g><g class="cls-3"><path class="cls-4" d="M247.76,375.61h29.3v29.3s-2.48,3.4-14.65,3.4c-10.46,0-14.65-3.4-14.65-3.4Z"/></g><g class="cls-3"><path class="cls-4" d="M324.92,339.1l20.72-20.72,20.72,20.72s.65,4.16-8,12.76c-7.4,7.4-12.76,9-12.76,9Z"/></g><g class="cls-5"><path class="cls-4" d="M342.43,279.61v-29.3h29.3a81.23,81.23,0,0,1,3.4,14.65,105.52,105.52,0,0,1,1.29,14.65Z"/></g><circle class="cls-6" cx="263.69" cy="278.74" r="99.01"/><path class="cls-7" d="M260.82,525.09A10.78,10.78,0,0,1,250,514.32V454.1l-2.1-.17a189.78,189.78,0,0,1-109.76-46.05l-1.61-1.39L95.43,447.62a12.37,12.37,0,1,1-17.49-17.49l41.19-41.19-1.38-1.6A189.77,189.77,0,0,1,72.23,276.89l-.16-2.12H14.65a12.37,12.37,0,0,1,0-24.73H72.1l.16-2.11a189.75,189.75,0,0,1,46.15-110.84l1.39-1.61L79.75,95.43A12.37,12.37,0,1,1,97.24,77.94l40.1,40.1,1.6-1.38A189.71,189.71,0,0,1,250.47,71.08l2.13-.14V14.65a12.37,12.37,0,0,1,24.73,0V71.09l2.1.17a189.71,189.71,0,0,1,110.91,47.06l1.61,1.42,40-40a12.37,12.37,0,1,1,17.49,17.49l-40.18,40.18,1.35,1.6a189.74,189.74,0,0,1,44.67,111.44l.13,2.14h57.32a12.37,12.37,0,0,1,0,24.73H455.11l-.18,2.09a189.88,189.88,0,0,1-45.42,108.05L408.19,389l39.37,42.87a12.37,12.37,0,1,1-17.42,17.56l-39.39-42.9L389.07,408A189.67,189.67,0,0,1,276.9,454.12l-2.13.14v60.06A10.78,10.78,0,0,1,264,525.09ZM325.72,339a96.31,96.31,0,0,1-49,21.64l-2,.27v72.43l2.46-.19a169.56,169.56,0,0,0,97.48-40.52l1.8-1.54L327.4,337.55ZM151.47,391.58l1.89,1.6a169.79,169.79,0,0,0,94.18,39.68l2.5.23V360.53l-1.92-.31a96.66,96.66,0,0,1-43.55-18.91L203,340.07ZM93.28,277.25a169.75,169.75,0,0,0,39.15,94.88L134,374l51.82-51.82-1.12-1.57a96.64,96.64,0,0,1-17-43.87l-.25-2H93.07Zm266,2a95.62,95.62,0,0,1-14.53,38.18l-1,1.48,50,54.5,1.67-2a170,170,0,0,0,38.3-91.57l.25-2.51H359.62Zm-18.72-73.21,1.16,1.58a96.69,96.69,0,0,1,17.63,43l.29,2h74.77l-.18-2.45a169.7,169.7,0,0,0-38.32-95.88l-1.6-1.95ZM133.1,152.28a169.7,169.7,0,0,0-39.78,95.29L93.1,250h74.95l.33-1.89a96.7,96.7,0,0,1,18.74-42.53l1.23-1.59L134.7,150.38Zm144.23,16.67,1.92.31a96.72,96.72,0,0,1,42.39,18l1.58,1.19,53.84-53.84L375.2,133a169.71,169.71,0,0,0-95.38-40.69l-2.5-.23ZM250.13,92.1a169.67,169.67,0,0,0-96,39.25l-1.91,1.6,54,54,1.57-1.12a96.71,96.71,0,0,1,42.84-16.91l2-.27V91.9Z"/><path class="cls-8" d="M265,4.56A10.1,10.1,0,0,1,275,14.65V73.2l4.2.34A187.45,187.45,0,0,1,388.83,120l3.21,2.83,3-3,38.48-38.48a10.08,10.08,0,1,1,14.26,14.26l-38.7,38.7-3,3,2.71,3.21A187.47,187.47,0,0,1,453,250.6l.27,4.28h59.46a10.08,10.08,0,0,1,0,20.17H453l-.36,4.17A187.62,187.62,0,0,1,407.78,386l-2.64,3.08,2.74,3,38,41.37.07.07.07.07a10.08,10.08,0,0,1-14.2,14.32l-37.89-41.26-3-3.26-3.35,2.9a187.4,187.4,0,0,1-110.82,45.58l-4.26.29v62.19a8.5,8.5,0,0,1-8.49,8.49h-3.19a8.5,8.5,0,0,1-8.49-8.49V452l-4.2-.34a187.52,187.52,0,0,1-108.45-45.5l-3.21-2.78-3,3L93.82,446a10.08,10.08,0,0,1-14.26-14.26l39.69-39.69,3-3-2.75-3.21a187.5,187.5,0,0,1-45-109.13l-.31-4.23H14.65a10.08,10.08,0,0,1,0-20.17H74.22l.32-4.22a187.47,187.47,0,0,1,45.59-109.52l2.78-3.21-3-3L81.36,93.82A10.08,10.08,0,0,1,95.62,79.56l38.6,38.6,3,3,3.21-2.75a187.44,187.44,0,0,1,110.2-45l4.26-.29V14.65A10.1,10.1,0,0,1,265,4.56M206,189.89l3.14-2.23a94.4,94.4,0,0,1,41.83-16.51l4-.53V89.43l-4.92.39a171.94,171.94,0,0,0-97.27,39.77l-3.83,3.2,3.53,3.53,50.84,50.84,2.73,2.73m117.48,1.59,2.8-2.8L376.94,138l3.48-3.48-3.72-3.21A172,172,0,0,0,280,90.05l-5-.47v81.31l3.84.62a94.43,94.43,0,0,1,41.39,17.6l3.17,2.37M90.61,252.33H170l.65-3.79A94.42,94.42,0,0,1,188.93,207l2.46-3.18L188.54,201l-50.48-50.48L134.56,147l-3.2,3.79A172,172,0,0,0,91,247.36l-.43,5m267.09,2.55H436.9l-.35-4.89a172,172,0,0,0-38.84-97.17l-3.19-3.89L391,152.49l-50.57,50.57-2.77,2.77,2.31,3.16a94.39,94.39,0,0,1,17.21,42l.57,3.91M133.88,377.42l3.53-3.53,48.7-48.7,2.73-2.73-2.23-3.14A94.35,94.35,0,0,1,170,276.5l-.5-4H90.59l.42,5a172,172,0,0,0,39.67,96.15l3.2,3.83M394,376.9l3.34-4a172.26,172.26,0,0,0,38.82-92.79l.51-5h-79l-.59,3.88a93.33,93.33,0,0,1-14.18,37.27l-1.93,3,2.4,2.61L390.43,373,394,376.9M272.49,435.76l4.92-.39a171.82,171.82,0,0,0,98.79-41.06l3.59-3.07-3.2-3.48-46.05-50.14-2.95-3.21-3.34,2.8a94,94,0,0,1-47.81,21.12l-4,.53v76.9m-20.17-.15v-77l-3.84-.62A94.36,94.36,0,0,1,206,339.5L202.79,337l-2.84,2.84-48.33,48.33-3.51,3.51,3.79,3.2a172.06,172.06,0,0,0,95.44,40.21l5,.47M265,0h0a14.65,14.65,0,0,0-14.65,14.65V68.8a192.52,192.52,0,0,0-112.86,46.14l-38.6-38.6A14.65,14.65,0,0,0,78.13,97l38.55,38.55A192.52,192.52,0,0,0,70,247.76H14.65a14.65,14.65,0,0,0,0,29.3H70A192.51,192.51,0,0,0,116,388.83L76.33,428.52A14.65,14.65,0,0,0,97,449.24l39.64-39.64a192.5,192.5,0,0,0,111.08,46.6v58.12a13.06,13.06,0,0,0,13.06,13.05H264a13.05,13.05,0,0,0,13.06-13.05V456.39a192.53,192.53,0,0,0,113.5-46.68l38,41.33a14.65,14.65,0,0,0,20.72-20.72l-38-41.37a192.47,192.47,0,0,0,46-109.34h55.52a14.65,14.65,0,0,0,0-29.3H457.55a192.51,192.51,0,0,0-45.2-112.77L451,98.85a14.65,14.65,0,0,0-20.72-20.72l-38.48,38.48A192.52,192.52,0,0,0,279.61,69V14.65A14.65,14.65,0,0,0,265,0ZM206.45,183.93l-50.84-50.84a168,168,0,0,1,94.7-38.72v72.26a98.47,98.47,0,0,0-43.86,17.31ZM323,185.46A98.51,98.51,0,0,0,279.61,167V94.6a168.06,168.06,0,0,1,94.1,40.15L323,185.46ZM95.59,247.76a168,168,0,0,1,39.25-94l50.48,50.48a98.54,98.54,0,0,0-19.19,43.53Zm266.06,2.55a98.48,98.48,0,0,0-18-44l50.57-50.57A168,168,0,0,1,432,250.31ZM134.19,370.67a168,168,0,0,1-38.63-93.61h69.88A98.46,98.46,0,0,0,182.88,322l-48.7,48.7ZM393.79,370l-47.08-51.26a98.41,98.41,0,0,0,14.87-39.08h70A168,168,0,0,1,393.79,370ZM277.06,430.82v-68a98.58,98.58,0,0,0,50.13-22.15l46.05,50.14a168,168,0,0,1-96.18,40Zm-29.3-.23a168,168,0,0,1-92.92-39.15l48.33-48.33a98.53,98.53,0,0,0,44.59,19.36v68.12Z"/></g></svg>